// File automatically generated by Merope 
SetFactory("OpenCASCADE");
// Ask OpenCASCADE to compute more accurate bounding boxes of entities using the 
// STL mesh: 
Geometry.OCCBoundsUseStl = 1;
meshSize = 0;  // WARNING : Default value. Correct value is at the end of the script.

 // BEGIN  Points
p47 = newp; Point(p47)={1.191808829089569,0.53441625607977983,0.32897539520346841,meshSize};
p60 = newp; Point(p60)={0.19180882908956898,0.53441625607977983,0.32897539520346841,meshSize};
p82 = newp; Point(p82)={0.19180882908956898,0.53441625607977983,1.3289753952034684,meshSize};
p38 = newp; Point(p38)={1.2832417841389727,0.93578687705248798,0.63755442319242805,meshSize};
p51 = newp; Point(p51)={0.28324178413897272,-0.064213122947512025,0.63755442319242805,meshSize};
p98 = newp; Point(p98)={0.28324178413897272,0.93578687705248798,0.63755442319242805,meshSize};
p35 = newp; Point(p35)={0.51093074405698879,0.83653651425194431,0.26665265013224754,meshSize};
p52 = newp; Point(p52)={0.51093074405698879,-0.16346348574805569,0.26665265013224754,meshSize};
p88 = newp; Point(p88)={0.51093074405698879,0.83653651425194431,1.2666526501322475,meshSize};
p29 = newp; Point(p29)={1.2841540206147701,0.7985923000799855,0.3657512701953739,meshSize};
p73 = newp; Point(p73)={0.28415402061477013,-0.2014076999200145,0.3657512701953739,meshSize};
p81 = newp; Point(p81)={0.28415402061477013,0.7985923000799855,1.365751270195374,meshSize};
p105 = newp; Point(p105)={0.28415402061477013,0.7985923000799855,0.3657512701953739,meshSize};
p28 = newp; Point(p28)={1.1671971220853521,0.10136317569375823,0.74369316192967516,meshSize};
p64 = newp; Point(p64)={0.16719712208535209,0.10136317569375823,0.74369316192967516,meshSize};
p102 = newp; Point(p102)={0.16719712208535209,1.1013631756937583,0.74369316192967516,meshSize};
p27 = newp; Point(p27)={1.1258191319022073,0.27644303218643601,0.8311583397690252,meshSize};
p53 = newp; Point(p53)={0.12581913190220728,0.27644303218643601,-0.1688416602309748,meshSize};
p89 = newp; Point(p89)={0.12581913190220728,0.27644303218643601,0.8311583397690252,meshSize};
p26 = newp; Point(p26)={0.51164248271591495,-0.028531538542031804,0.53273814639172712,meshSize};
p42 = newp; Point(p42)={0.51164248271591495,0.97146846145796817,0.53273814639172712,meshSize};
p25 = newp; Point(p25)={0.34729687603089299,-0.024686041873996034,0.66649186756411516,meshSize};
p97 = newp; Point(p97)={0.34729687603089299,0.97531395812600397,0.66649186756411516,meshSize};
p24 = newp; Point(p24)={0.69516557022867864,-0.29116682440966934,0.89925297102911739,meshSize};
p43 = newp; Point(p43)={0.69516557022867864,0.70883317559033066,0.89925297102911739,meshSize};
p86 = newp; Point(p86)={-0.30483442977132136,0.70883317559033066,0.89925297102911739,meshSize};
p23 = newp; Point(p23)={1.1218306404163705,0.057464853218030076,0.71256658867016442,meshSize};
p44 = newp; Point(p44)={1.1218306404163705,1.05746485321803,0.71256658867016442,meshSize};
p56 = newp; Point(p56)={0.12183064041637048,0.057464853218030076,0.71256658867016442,meshSize};
p99 = newp; Point(p99)={0.12183064041637048,1.05746485321803,0.71256658867016442,meshSize};
p22 = newp; Point(p22)={0.62210777792123972,0.080405741543348702,1.4136508299596611,meshSize};
p41 = newp; Point(p41)={0.62210777792123972,1.0804057415433488,0.41365082995966107,meshSize};
p59 = newp; Point(p59)={0.62210777792123972,0.080405741543348702,0.41365082995966107,meshSize};
p21 = newp; Point(p21)={0.88662047509149666,-0.085096919660946846,1.1859608192238866,meshSize};
p32 = newp; Point(p32)={0.88662047509149666,0.91490308033905321,0.18596081922388663,meshSize};
p62 = newp; Point(p62)={-0.11337952490850334,-0.085096919660946846,0.18596081922388663,meshSize};
p91 = newp; Point(p91)={-0.11337952490850334,0.91490308033905321,1.1859608192238866,meshSize};
p20 = newp; Point(p20)={0.86554918876605769,0.4418302953236336,1.1846410983175293,meshSize};
p36 = newp; Point(p36)={0.86554918876605769,0.4418302953236336,0.18464109831752928,meshSize};
p55 = newp; Point(p55)={-0.13445081123394231,0.4418302953236336,0.18464109831752928,meshSize};
p93 = newp; Point(p93)={-0.13445081123394231,0.4418302953236336,1.1846410983175293,meshSize};
p19 = newp; Point(p19)={0.63522934813977194,-0.32712537343493275,1.02263788034611,meshSize};
p76 = newp; Point(p76)={0.63522934813977194,0.67287462656506725,1.02263788034611,meshSize};
p78 = newp; Point(p78)={-0.36477065186022806,0.67287462656506725,1.02263788034611,meshSize};
p18 = newp; Point(p18)={0.59028391968032956,0.58092823359750023,1.1485948644108441,meshSize};
p48 = newp; Point(p48)={0.59028391968032956,0.58092823359750023,0.14859486441084413,meshSize};
p17 = newp; Point(p17)={0.74350037764384702,0.57769790324207082,0.87515205550187603,meshSize};
p96 = newp; Point(p96)={-0.25649962235615298,0.57769790324207082,0.87515205550187603,meshSize};
p16 = newp; Point(p16)={0.63522934813977194,0.63962188462006209,1.0782415017856899,meshSize};
p40 = newp; Point(p40)={0.63522934813977194,0.63962188462006209,0.078241501785689893,meshSize};
p83 = newp; Point(p83)={-0.36477065186022806,0.63962188462006209,1.0782415017856899,meshSize};
p15 = newp; Point(p15)={0.37753101942222023,0.36510349214922833,0.97626194353070761,meshSize};
p54 = newp; Point(p54)={0.37753101942222023,0.36510349214922833,-0.02373805646929239,meshSize};
p14 = newp; Point(p14)={0.63522934813977194,0.64482374546323129,1.0358460549719521,meshSize};
p77 = newp; Point(p77)={-0.36477065186022806,0.64482374546323129,1.0358460549719521,meshSize};
p13 = newp; Point(p13)={0.79733803295727101,0.25478060160822369,0.50401656039618348,meshSize};
p70 = newp; Point(p70)={-0.20266196704272899,0.25478060160822369,0.50401656039618348,meshSize};
p12 = newp; Point(p12)={0.48925427700211277,0.46668541066603075,1.162558876995889,meshSize};
p65 = newp; Point(p65)={0.48925427700211277,0.46668541066603075,0.162558876995889,meshSize};
p11 = newp; Point(p11)={0.70613700968755944,0.1291477409174234,1.4252786050109538,meshSize};
p30 = newp; Point(p30)={0.70613700968755944,1.1291477409174233,0.42527860501095383,meshSize};
p69 = newp; Point(p69)={-0.29386299031244056,0.1291477409174234,0.42527860501095383,meshSize};
p111 = newp; Point(p111)={0.70613700968755944,0.1291477409174234,0.42527860501095383,meshSize};
p10 = newp; Point(p10)={0.71977297382603145,0.13426247699369148,0.44954537481726997,meshSize};
p46 = newp; Point(p46)={0.71977297382603145,1.1342624769936915,0.44954537481726997,meshSize};
p57 = newp; Point(p57)={-0.28022702617396855,0.13426247699369148,0.44954537481726997,meshSize};
p9 = newp; Point(p9)={1.0378363974075531,0.2974220366022986,0.66378842106909586,meshSize};
p68 = newp; Point(p68)={0.037836397407553068,0.2974220366022986,0.66378842106909586,meshSize};
p8 = newp; Point(p8)={0.74788770624609002,0.3007705740861521,1.357023718037089,meshSize};
p39 = newp; Point(p39)={0.74788770624609002,0.3007705740861521,0.35702371803708899,meshSize};
p61 = newp; Point(p61)={-0.25211229375390998,0.3007705740861521,0.35702371803708899,meshSize};
p7 = newp; Point(p7)={1.1752381291800877,0.11216833909137515,0.77178642722229696,meshSize};
p66 = newp; Point(p66)={0.17523812918008774,0.11216833909137515,-0.22821357277770304,meshSize};
p101 = newp; Point(p101)={0.17523812918008774,1.1121683390913752,0.77178642722229696,meshSize};
p107 = newp; Point(p107)={0.17523812918008774,0.11216833909137515,0.77178642722229696,meshSize};
p6 = newp; Point(p6)={0.52023069093851981,-0.15652666990799388,1.2521846033457025,meshSize};
p50 = newp; Point(p50)={0.52023069093851981,0.84347333009200609,0.25218460334570247,meshSize};
p72 = newp; Point(p72)={0.52023069093851981,-0.15652666990799388,0.25218460334570247,meshSize};
p84 = newp; Point(p84)={0.52023069093851981,0.84347333009200609,1.2521846033457025,meshSize};
p5 = newp; Point(p5)={0.63522934813977194,-0.31976973408527043,1.0775458177589123,meshSize};
p49 = newp; Point(p49)={0.63522934813977194,0.68023026591472957,0.077545817758912339,meshSize};
p87 = newp; Point(p87)={0.63522934813977194,0.68023026591472957,1.0775458177589123,meshSize};
p95 = newp; Point(p95)={-0.36477065186022806,0.68023026591472957,1.0775458177589123,meshSize};
p4 = newp; Point(p4)={0.30556100324331498,0.030819851724230379,0.7019614072836784,meshSize};
p75 = newp; Point(p75)={0.30556100324331498,1.0308198517242304,0.7019614072836784,meshSize};
p3 = newp; Point(p3)={1.0449948395605384,0.35305919251447748,0.73508501420781069,meshSize};
p90 = newp; Point(p90)={0.044994839560538402,0.35305919251447748,0.73508501420781069,meshSize};
p2 = newp; Point(p2)={0.57544130190805132,0.043887664048826172,0.48285168565605907,meshSize};
p45 = newp; Point(p45)={0.57544130190805132,1.0438876640488262,0.48285168565605907,meshSize};
p1 = newp; Point(p1)={0.26527042539952106,0.092815074933004588,0.79899212372964334,meshSize};
p74 = newp; Point(p74)={0.26527042539952106,0.092815074933004588,-0.20100787627035666,meshSize};
p100 = newp; Point(p100)={0.26527042539952106,1.0928150749330046,0.79899212372964334,meshSize};
p384 = newp; Point(p384)={0.84993022171529509,0.43005912663466839,1.1727678894027367,meshSize};
p385 = newp; Point(p385)={0.3365738635921835,0.024761423532406929,0.70235872836145563,meshSize};
p386 = newp; Point(p386)={0.79878524698164721,0.24760805221634552,0.52873688716023415,meshSize};
p387 = newp; Point(p387)={0.56432121277925928,0.035789125929824667,0.51745579721493407,meshSize};
p388 = newp; Point(p388)={0.63171818995469686,0.088149958999134304,1.3899169796993407,meshSize};
p389 = newp; Point(p389)={1.1496585967089907,0.11663160563982994,0.77286362101975015,meshSize};
p390 = newp; Point(p390)={1.0256687479450926,0.2878355110586317,0.67946389600194279,meshSize};
p391 = newp; Point(p391)={0.63756368772178307,-0.29958543260578196,1.0135020499081488,meshSize};
p392 = newp; Point(p392)={0.63746429915266956,0.6168878989245824,1.0390038710811973,meshSize};
p393 = newp; Point(p393)={0.29308397378389739,0.091679436881401233,0.80709426188034428,meshSize};
p394 = newp; Point(p394)={0.63746429915266956,0.61251832068726075,1.074616169707389,meshSize};
p395 = newp; Point(p395)={1.1039235857288396,0.26866028502030759,0.82780959770496654,meshSize};
p396 = newp; Point(p396)={0.69148548633984386,-0.26723521813511064,0.90249845307100396,meshSize};
p397 = newp; Point(p397)={0.74224849711107832,0.30096374444394713,1.3305294387699647,meshSize};
p398 = newp; Point(p398)={0.72870520851879705,0.13871991491516006,0.4795221656961739,meshSize};
p399 = newp; Point(p399)={1.0319765614477245,0.3368613739224563,0.74228840492173453,meshSize};
p400 = newp; Point(p400)={0.74871756314352322,0.5479131318105589,0.87388369048738823,meshSize};
p401 = newp; Point(p401)={0.59683201902964922,0.55945715403393692,1.1382181340397843,meshSize};
p402 = newp; Point(p402)={0.53254180932340567,-0.14250150265851738,1.2327311352269672,meshSize};
p403 = newp; Point(p403)={0.63756368772178307,-0.2915823150144532,1.0732432442384758,meshSize};
p404 = newp; Point(p404)={0.70013110664818856,0.12783355805816257,1.3993838043887177,meshSize};
p405 = newp; Point(p405)={0.87037385868419304,-0.074254763685053266,1.1736450178889735,meshSize};
p406 = newp; Point(p406)={1.1438129205149066,0.10877643455212004,0.75244029217544617,meshSize};
p407 = newp; Point(p407)={1.1012229381603389,0.067564757762233266,0.72321871366394497,meshSize};
p408 = newp; Point(p408)={0.40606412404356496,0.36571313997080102,0.98550032726762327,meshSize};
p409 = newp; Point(p409)={0.50524167543391085,0.45588815063790245,1.1508774751671504,meshSize};
p410 = newp; Point(p410)={0.36587923394629374,-0.014212740899491511,0.6774533429376961,meshSize};
p411 = newp; Point(p411)={0.51715300045548285,-0.017752371661798522,0.55433822234219665,meshSize};
p471 = newp; Point(p471)={1.0331516056091472,0.37091964968654745,0.71879514358028174,meshSize};
p472 = newp; Point(p472)={1.1706839434225553,0.54232332967457431,0.34130367600813538,meshSize};
p473 = newp; Point(p473)={1.257343492439098,0.91927009898943646,0.62701823847843918,meshSize};
p474 = newp; Point(p474)={0.8803441555257574,0.9031920723300465,0.20526624611274785,meshSize};
p475 = newp; Point(p475)={0.60830260239842826,0.5951797377394078,0.15732373422789242,meshSize};
p476 = newp; Point(p476)={0.80945827322668473,0.28216954219846641,0.5101082751481234,meshSize};
p477 = newp; Point(p477)={1.0266883174614143,0.32068540001383272,0.6544221395719988,meshSize};
p478 = newp; Point(p478)={1.2581854643461106,0.79264286726823174,0.37615059052461142,meshSize};
p479 = newp; Point(p479)={0.64269737397065352,0.68134956045361006,0.10277863454565106,meshSize};
p480 = newp; Point(p480)={0.53467848828196918,0.96305636698238484,0.52134448201285621,meshSize};
p481 = newp; Point(p481)={0.59885302308337984,1.03590205120988,0.47116423649829764,meshSize};
p482 = newp; Point(p482)={0.63215047281507741,1.0619584187257913,0.42178806304800159,meshSize};
p483 = newp; Point(p483)={0.70902946458798266,1.1065528496173562,0.43242640405999017,meshSize};
p484 = newp; Point(p484)={0.76083360402987121,0.57381944556932074,0.84530750646030484,meshSize};
p485 = newp; Point(p485)={0.75687867307216306,0.33106981293136295,0.35381355697651784,meshSize};
p486 = newp; Point(p486)={0.7096692277709612,0.71263151029134642,0.870819314123637,meshSize};
p487 = newp; Point(p487)={0.53452198632675885,0.83490684692392358,0.26705549471323514,meshSize};
p488 = newp; Point(p488)={0.53400047367863634,0.83451785145498447,0.26786681863679407,meshSize};
p489 = newp; Point(p489)={0.64269737397065352,0.64009542302389866,0.10348538136818713,meshSize};
p490 = newp; Point(p490)={0.8594093705061886,0.45398983134838222,0.20359863662353439,meshSize};
p491 = newp; Point(p491)={1.1040151567081438,1.034854941214681,0.69827410239848198,meshSize};
p492 = newp; Point(p492)={0.71565173388323977,1.109036807431212,0.44421149552485001,meshSize};
p540 = newp; Point(p540)={0.18643000677791868,0.50946909547275565,0.32476395920260354,meshSize};
p541 = newp; Point(p541)={0.28521896026369542,-0.17808793223059749,0.36413618710023565,meshSize};
p542 = newp; Point(p542)={0.17893335758463558,0.11962417369309233,-0.19945299460448773,meshSize};
p543 = newp; Point(p543)={0.13494802245970944,0.2658367200080457,-0.14660907598567485,meshSize};
p544 = newp; Point(p544)={0.3369642743586404,-0.013618315668270015,0.64941514860549687,meshSize};
p545 = newp; Point(p545)={0.49917429045661077,-0.017413841992391682,0.51739949146585373,meshSize};
p546 = newp; Point(p546)={0.54694984564739157,0.03681706155822323,0.48004216435025426,meshSize};
p547 = newp; Point(p547)={-0.26748168250773174,0.13860088661693282,0.4222715092136039,meshSize};
p548 = newp; Point(p548)={0.50380839967861846,-0.1384509736512462,0.26269346863236165,meshSize};
p549 = newp; Point(p549)={0.040796800916055198,0.28531060439615474,0.64144333997526926,meshSize};
p550 = newp; Point(p550)={0.49851501751575983,-0.14239929913122706,0.27092845123676695,meshSize};
p551 = newp; Point(p551)={0.25709896498620743,0.1028217626510024,-0.17583313949053447,meshSize};
p552 = newp; Point(p552)={-0.094219777962524953,-0.067071349603549435,0.19252938151117033,meshSize};
p553 = newp; Point(p553)={0.59551024922391016,0.074817200683179541,0.40803283843698379,meshSize};
p554 = newp; Point(p554)={-0.25681810742399741,0.14260070442437978,0.44124857011238283,meshSize};
p555 = newp; Point(p555)={-0.11419967266947073,0.42415640501601015,0.19176812385178124,meshSize};
p556 = newp; Point(p556)={0.35647813951718199,0.34386625714051494,-0.018904267748396431,meshSize};
p557 = newp; Point(p557)={0.46807754668562374,0.44533556739045516,0.16718614692775666,meshSize};
p558 = newp; Point(p558)={0.16405958528886341,0.098493769868206335,0.7175814481034859,meshSize};
p559 = newp; Point(p559)={0.28434128327116548,-0.046090882229491453,0.62564225511195592,meshSize};
p560 = newp; Point(p560)={0.1327424895045734,0.0681901642288473,0.69609435365967509,meshSize};
p561 = newp; Point(p561)={0.30774991061382023,0.025234816116301295,0.67424319139024202,meshSize};
p562 = newp; Point(p562)={-0.19147570679907544,0.24412765056906949,0.48713621682441044,meshSize};
p563 = newp; Point(p563)={-0.23252329159980806,0.28230287449219654,0.3651208215151735,meshSize};
p615 = newp; Point(p615)={0.61522934813977193,0.65152650167886461,1.0444725169115017,meshSize};
p616 = newp; Point(p616)={0.12180380702174778,0.30411664965750773,0.84177609944846277,meshSize};
p617 = newp; Point(p617)={0.50504386496638309,0.82858599230908547,1.239097256995124,meshSize};
p618 = newp; Point(p618)={0.61522934813977193,0.66751051757547564,1.0369462052631,meshSize};
p619 = newp; Point(p619)={-0.34477065186022804,0.65431080304625344,1.0376958570513382,meshSize};
p620 = newp; Point(p620)={0.61522934813977193,0.67217533205589874,1.0717678338609136,meshSize};
p621 = newp; Point(p621)={-0.098476594120851441,0.89922786564446111,1.1709828338059818,meshSize};
p622 = newp; Point(p622)={-0.28654053210985342,0.69994672676731517,0.91278443642664475,meshSize};
p623 = newp; Point(p623)={0.50130155081220273,0.82579460603194876,1.2449192231807757,meshSize};
p624 = newp; Point(p624)={0.33013466541806702,0.96696908382334568,0.68431027721713722,meshSize};
p625 = newp; Point(p625)={0.2886521378920206,1.0221380453247702,0.71956450959516272,meshSize};
p626 = newp; Point(p626)={-0.34477065186022804,0.650950737581665,1.0650805720580256,meshSize};
p627 = newp; Point(p627)={0.27922680055711502,0.93555488641600015,0.66131220690009229,meshSize};
p628 = newp; Point(p628)={0.049202207382964921,0.37293823332796,0.7554768332714582,meshSize};
p629 = newp; Point(p629)={-0.24748929005746642,0.5939983318954547,0.89331253333506289,meshSize};
p630 = newp; Point(p630)={0.37845304648797778,0.39451619273974553,0.98972592381376645,meshSize};
p631 = newp; Point(p631)={-0.34477065186022804,0.66501174850517442,1.0326571577046073,meshSize};
p632 = newp; Point(p632)={-0.34477065186022804,0.66931314905708661,1.0647659957082847,meshSize};
p633 = newp; Point(p633)={0.27940485424872591,0.78866691651137943,1.3418853319252193,meshSize};
p634 = newp; Point(p634)={-0.11930628216970315,0.45732887726106125,1.1692371132493773,meshSize};
p635 = newp; Point(p635)={0.57341157851107183,0.59351757296724084,1.1376374397919642,meshSize};
p636 = newp; Point(p636)={0.61522934813977193,0.64812685496226352,1.0721798212597948,meshSize};
p637 = newp; Point(p637)={0.47528964018191822,0.48256273902871566,1.1511995582492309,meshSize};
p638 = newp; Point(p638)={0.19473478935238686,0.54644745256179883,1.3081660264502339,meshSize};
p639 = newp; Point(p639)={0.13492841144973997,1.0443326048906798,0.72837160808056667,meshSize};
p640 = newp; Point(p640)={0.2564249111690623,1.0717261679333745,0.79717647411249137,meshSize};
p641 = newp; Point(p641)={0.17295256799184483,1.0811262160402562,0.75446051007818771,meshSize};
p642 = newp; Point(p642)={0.17843341948721134,1.0884911512116577,0.77360923277855687,meshSize};
p702 = newp; Point(p702)={0.77210127798655748,0.25908182487181541,0.49688096158124223,meshSize};
p703 = newp; Point(p703)={0.50033904708547405,0.82049690306812773,0.28996658473069736,meshSize};
p704 = newp; Point(p704)={0.57851422300955124,0.56868313316104724,0.17366136952689554,meshSize};
p705 = newp; Point(p705)={0.29908970593698053,0.78682392293774095,0.3779100548263421,meshSize};
p706 = newp; Point(p706)={0.26424121714816273,0.10855913649933374,0.78253365720414192,meshSize};
p707 = newp; Point(p707)={0.62918980385891488,0.64270449282177289,1.0057317147369063,meshSize};
p708 = newp; Point(p708)={0.21157853138497185,0.53647676877485095,0.34305929581479994,meshSize};
p709 = newp; Point(p709)={0.62918980385891488,0.66530111794450519,0.99509175767130764,meshSize};
p710 = newp; Point(p710)={0.36722988635280579,0.35835847145802091,0.94516225355529726,meshSize};
p711 = newp; Point(p711)={0.49330165923099711,0.472326028679385,0.18543919315829815,meshSize};
p712 = newp; Point(p712)={0.6941641465692252,0.14400631274855746,0.43664533252998039,meshSize};
p713 = newp; Point(p713)={0.29823743906639416,0.91499945184934139,0.63184511307737401,meshSize};
p714 = newp; Point(p714)={0.35696641597229628,0.95123989680008947,0.65837643872261919,meshSize};
p715 = newp; Point(p715)={0.18732241919705536,0.12509353446541405,0.75929055933104772,meshSize};
p716 = newp; Point(p716)={0.066866325087540091,0.34908934644821593,0.72656096150168037,meshSize};
p717 = newp; Point(p717)={0.29337331984252929,0.063733489766734652,0.71237559675211948,meshSize};
p718 = newp; Point(p718)={0.50101091129639386,0.94786942260250828,0.54114490663230874,meshSize};
p719 = newp; Point(p719)={0.18338890786588399,0.11980784920746801,0.7455478557049714,meshSize};
p720 = newp; Point(p720)={0.14110915567973725,0.27871198282325971,0.81481110792941425,meshSize};
p721 = newp; Point(p721)={0.06119438306729813,0.3050056316174079,0.67006960012985928,meshSize};
p722 = newp; Point(p722)={0.62084762894292422,0.10147833074595558,0.42649995863350654,meshSize};
p723 = newp; Point(p723)={0.73137317926213208,0.29695991919371112,0.37581524991565135,meshSize};
p724 = newp; Point(p724)={0.69927218605420505,0.1459222956279137,0.44573567752391119,meshSize};
p725 = newp; Point(p725)={0.59103165723019635,0.078146336162259633,0.4707135126065396,meshSize};
p726 = newp; Point(p726)={0.7172443956837069,0.58811243190988127,0.87504260429948899,meshSize};
p727 = newp; Point(p727)={0.67800006695992843,0.69458468266518947,0.89461078512145831,meshSize};
// END  Points


 // BEGIN  Edges
c1 = newc; Line(c1) = {p2,p26};
c2 = newc; Line(c2) = {p26,p24};
c3 = newc; Line(c3) = {p24,p23};
c4 = newc; Line(c4) = {p23,p10};
c5 = newc; Line(c5) = {p10,p2};
c6 = newc; Line(c6) = {p2,p4};
c7 = newc; Line(c7) = {p4,p25};
c8 = newc; Line(c8) = {p25,p26};
c11 = newc; Line(c11) = {p10,p13};
c12 = newc; Line(c12) = {p13,p17};
c13 = newc; Line(c13) = {p17,p14};
c14 = newc; Line(c14) = {p14,p15};
c15 = newc; Line(c15) = {p15,p1};
c16 = newc; Line(c16) = {p1,p4};
c18 = newc; Line(c18) = {p3,p9};
c19 = newc; Line(c19) = {p9,p28};
c20 = newc; Line(c20) = {p28,p7};
c21 = newc; Line(c21) = {p7,p27};
c22 = newc; Line(c22) = {p27,p3};
c23 = newc; Line(c23) = {p3,p17};
c25 = newc; Line(c25) = {p13,p9};
c28 = newc; Line(c28) = {p27,p20};
c29 = newc; Line(c29) = {p20,p16};
c30 = newc; Line(c30) = {p16,p14};
c34 = newc; Line(c34) = {p1,p6};
c35 = newc; Line(c35) = {p6,p5};
c36 = newc; Line(c36) = {p5,p19};
c37 = newc; Line(c37) = {p19,p25};
c39 = newc; Line(c39) = {p5,p21};
c40 = newc; Line(c40) = {p21,p7};
c42 = newc; Line(c42) = {p28,p23};
c44 = newc; Line(c44) = {p24,p19};
c47 = newc; Line(c47) = {p6,p22};
c48 = newc; Line(c48) = {p22,p11};
c49 = newc; Line(c49) = {p11,p21};
c53 = newc; Line(c53) = {p15,p12};
c54 = newc; Line(c54) = {p12,p22};
c58 = newc; Line(c58) = {p11,p8};
c59 = newc; Line(c59) = {p8,p20};
c62 = newc; Line(c62) = {p8,p18};
c63 = newc; Line(c63) = {p18,p16};
c69 = newc; Line(c69) = {p12,p18};
c85 = newc; Line(c85) = {p30,p41};
c86 = newc; Line(c86) = {p41,p50};
c87 = newc; Line(c87) = {p50,p49};
c88 = newc; Line(c88) = {p49,p32};
c89 = newc; Line(c89) = {p32,p30};
c90 = newc; Line(c90) = {p30,p46};
c91 = newc; Line(c91) = {p46,p45};
c92 = newc; Line(c92) = {p45,p41};
c95 = newc; Line(c95) = {p32,p29};
c96 = newc; Line(c96) = {p29,p38};
c97 = newc; Line(c97) = {p38,p44};
c98 = newc; Line(c98) = {p44,p46};
c100 = newc; Line(c100) = {p3,p38};
c102 = newc; Line(c102) = {p29,p47};
c103 = newc; Line(c103) = {p47,p9};
c106 = newc; Line(c106) = {p17,p43};
c107 = newc; Line(c107) = {p43,p44};
c115 = newc; Line(c115) = {p49,p40};
c116 = newc; Line(c116) = {p40,p36};
c117 = newc; Line(c117) = {p36,p47};
c121 = newc; Line(c121) = {p13,p39};
c122 = newc; Line(c122) = {p39,p48};
c123 = newc; Line(c123) = {p48,p35};
c124 = newc; Line(c124) = {p35,p42};
c125 = newc; Line(c125) = {p42,p43};
c129 = newc; Line(c129) = {p36,p39};
c133 = newc; Line(c133) = {p48,p40};
c136 = newc; Line(c136) = {p50,p35};
c140 = newc; Line(c140) = {p45,p42};
c151 = newc; Line(c151) = {p52,p72};
c152 = newc; Line(c152) = {p72,p74};
c153 = newc; Line(c153) = {p74,p66};
c154 = newc; Line(c154) = {p66,p62};
c155 = newc; Line(c155) = {p62,p73};
c156 = newc; Line(c156) = {p73,p52};
c157 = newc; Line(c157) = {p52,p26};
c159 = newc; Line(c159) = {p2,p59};
c160 = newc; Line(c160) = {p59,p72};
c163 = newc; Line(c163) = {p73,p51};
c164 = newc; Line(c164) = {p51,p25};
c167 = newc; Line(c167) = {p53,p55};
c168 = newc; Line(c168) = {p55,p61};
c169 = newc; Line(c169) = {p61,p69};
c170 = newc; Line(c170) = {p69,p62};
c172 = newc; Line(c172) = {p66,p53};
c173 = newc; Line(c173) = {p53,p54};
c174 = newc; Line(c174) = {p54,p65};
c175 = newc; Line(c175) = {p65,p60};
c176 = newc; Line(c176) = {p60,p55};
c180 = newc; Line(c180) = {p74,p54};
c185 = newc; Line(c185) = {p59,p65};
c188 = newc; Line(c188) = {p60,p68};
c189 = newc; Line(c189) = {p68,p70};
c190 = newc; Line(c190) = {p70,p61};
c192 = newc; Line(c192) = {p56,p51};
c196 = newc; Line(c196) = {p69,p57};
c197 = newc; Line(c197) = {p57,p56};
c198 = newc; Line(c198) = {p56,p64};
c199 = newc; Line(c199) = {p64,p4};
c204 = newc; Line(c204) = {p57,p70};
c206 = newc; Line(c206) = {p68,p64};
c223 = newc; Line(c223) = {p76,p14};
c225 = newc; Line(c225) = {p16,p87};
c226 = newc; Line(c226) = {p87,p76};
c227 = newc; Line(c227) = {p76,p97};
c228 = newc; Line(c228) = {p97,p98};
c229 = newc; Line(c229) = {p98,p90};
c230 = newc; Line(c230) = {p90,p89};
c231 = newc; Line(c231) = {p89,p15};
c235 = newc; Line(c235) = {p87,p84};
c236 = newc; Line(c236) = {p84,p100};
c237 = newc; Line(c237) = {p100,p75};
c238 = newc; Line(c238) = {p75,p97};
c240 = newc; Line(c240) = {p77,p96};
c241 = newc; Line(c241) = {p96,p86};
c242 = newc; Line(c242) = {p86,p78};
c243 = newc; Line(c243) = {p78,p77};
c244 = newc; Line(c244) = {p77,p83};
c245 = newc; Line(c245) = {p83,p93};
c246 = newc; Line(c246) = {p93,p89};
c248 = newc; Line(c248) = {p90,p96};
c251 = newc; Line(c251) = {p78,p95};
c252 = newc; Line(c252) = {p95,p83};
c255 = newc; Line(c255) = {p86,p99};
c256 = newc; Line(c256) = {p99,p102};
c257 = newc; Line(c257) = {p102,p101};
c258 = newc; Line(c258) = {p101,p91};
c259 = newc; Line(c259) = {p91,p95};
c262 = newc; Line(c262) = {p12,p82};
c263 = newc; Line(c263) = {p82,p81};
c264 = newc; Line(c264) = {p81,p88};
c265 = newc; Line(c265) = {p88,p18};
c272 = newc; Line(c272) = {p88,p84};
c278 = newc; Line(c278) = {p93,p82};
c281 = newc; Line(c281) = {p81,p91};
c283 = newc; Line(c283) = {p101,p100};
c296 = newc; Line(c296) = {p98,p99};
c299 = newc; Line(c299) = {p75,p102};
c307 = newc; Line(c307) = {p65,p48};
c309 = newc; Line(c309) = {p35,p105};
c310 = newc; Line(c310) = {p105,p60};
c313 = newc; Line(c313) = {p59,p111};
c314 = newc; Line(c314) = {p111,p39};
c324 = newc; Line(c324) = {p105,p98};
c326 = newc; Line(c326) = {p90,p68};
c331 = newc; Line(c331) = {p42,p97};
c341 = newc; Line(c341) = {p107,p89};
c344 = newc; Line(c344) = {p1,p107};
c345 = newc; Line(c345) = {p107,p64};
c355 = newc; Line(c355) = {p43,p76};
c373 = newc; Line(c373) = {p111,p10};
c385 = newc; Line(c385) = {p385,p393};
c386 = newc; Line(c386) = {p393,p402};
c387 = newc; Line(c387) = {p402,p403};
c388 = newc; Line(c388) = {p403,p391};
c389 = newc; Line(c389) = {p391,p410};
c390 = newc; Line(c390) = {p410,p385};
c391 = newc; Line(c391) = {p385,p387};
c392 = newc; Line(c392) = {p387,p398};
c393 = newc; Line(c393) = {p398,p386};
c394 = newc; Line(c394) = {p386,p400};
c395 = newc; Line(c395) = {p400,p392};
c396 = newc; Line(c396) = {p392,p408};
c397 = newc; Line(c397) = {p408,p393};
c400 = newc; Line(c400) = {p410,p411};
c401 = newc; Line(c401) = {p411,p387};
c404 = newc; Line(c404) = {p398,p407};
c405 = newc; Line(c405) = {p407,p406};
c406 = newc; Line(c406) = {p406,p390};
c407 = newc; Line(c407) = {p390,p386};
c409 = newc; Line(c409) = {p390,p399};
c410 = newc; Line(c410) = {p399,p400};
c413 = newc; Line(c413) = {p411,p396};
c414 = newc; Line(c414) = {p396,p407};
c417 = newc; Line(c417) = {p388,p409};
c418 = newc; Line(c418) = {p409,p401};
c419 = newc; Line(c419) = {p401,p397};
c420 = newc; Line(c420) = {p397,p404};
c421 = newc; Line(c421) = {p404,p388};
c422 = newc; Line(c422) = {p388,p402};
c425 = newc; Line(c425) = {p408,p409};
c428 = newc; Line(c428) = {p404,p405};
c429 = newc; Line(c429) = {p405,p403};
c432 = newc; Line(c432) = {p389,p405};
c435 = newc; Line(c435) = {p397,p384};
c436 = newc; Line(c436) = {p384,p395};
c437 = newc; Line(c437) = {p395,p389};
c438 = newc; Line(c438) = {p389,p406};
c441 = newc; Line(c441) = {p396,p391};
c446 = newc; Line(c446) = {p395,p399};
c454 = newc; Line(c454) = {p392,p394};
c455 = newc; Line(c455) = {p394,p401};
c463 = newc; Line(c463) = {p384,p394};
c472 = newc; Line(c472) = {p472,p490};
c473 = newc; Line(c473) = {p490,p485};
c474 = newc; Line(c474) = {p485,p476};
c475 = newc; Line(c475) = {p476,p477};
c476 = newc; Line(c476) = {p477,p472};
c477 = newc; Line(c477) = {p472,p478};
c478 = newc; Line(c478) = {p478,p474};
c479 = newc; Line(c479) = {p474,p479};
c480 = newc; Line(c480) = {p479,p489};
c481 = newc; Line(c481) = {p489,p490};
c484 = newc; Line(c484) = {p477,p471};
c485 = newc; Line(c485) = {p471,p473};
c486 = newc; Line(c486) = {p473,p478};
c489 = newc; Line(c489) = {p471,p484};
c490 = newc; Line(c490) = {p484,p486};
c491 = newc; Line(c491) = {p486,p491};
c492 = newc; Line(c492) = {p491,p473};
c494 = newc; Line(c494) = {p491,p492};
c495 = newc; Line(c495) = {p492,p483};
c496 = newc; Line(c496) = {p483,p474};
c500 = newc; Line(c500) = {p483,p482};
c501 = newc; Line(c501) = {p482,p487};
c502 = newc; Line(c502) = {p487,p479};
c504 = newc; Line(c504) = {p475,p485};
c507 = newc; Line(c507) = {p489,p475};
c508 = newc; Line(c508) = {p475,p488};
c509 = newc; Line(c509) = {p488,p480};
c510 = newc; Line(c510) = {p480,p486};
c512 = newc; Line(c512) = {p484,p476};
c518 = newc; Line(c518) = {p487,p488};
c524 = newc; Line(c524) = {p480,p481};
c525 = newc; Line(c525) = {p481,p492};
c532 = newc; Line(c532) = {p482,p481};
c541 = newc; Line(c541) = {p541,p552};
c542 = newc; Line(c542) = {p552,p547};
c543 = newc; Line(c543) = {p547,p554};
c544 = newc; Line(c544) = {p554,p560};
c545 = newc; Line(c545) = {p560,p559};
c546 = newc; Line(c546) = {p559,p541};
c547 = newc; Line(c547) = {p541,p550};
c548 = newc; Line(c548) = {p550,p548};
c549 = newc; Line(c549) = {p548,p551};
c550 = newc; Line(c550) = {p551,p542};
c551 = newc; Line(c551) = {p542,p552};
c554 = newc; Line(c554) = {p559,p544};
c555 = newc; Line(c555) = {p544,p545};
c556 = newc; Line(c556) = {p545,p550};
c559 = newc; Line(c559) = {p551,p556};
c560 = newc; Line(c560) = {p556,p543};
c561 = newc; Line(c561) = {p543,p542};
c563 = newc; Line(c563) = {p543,p555};
c564 = newc; Line(c564) = {p555,p563};
c565 = newc; Line(c565) = {p563,p547};
c569 = newc; Line(c569) = {p556,p557};
c570 = newc; Line(c570) = {p557,p540};
c571 = newc; Line(c571) = {p540,p555};
c573 = newc; Line(c573) = {p544,p561};
c574 = newc; Line(c574) = {p561,p546};
c575 = newc; Line(c575) = {p546,p545};
c579 = newc; Line(c579) = {p560,p558};
c580 = newc; Line(c580) = {p558,p561};
c583 = newc; Line(c583) = {p546,p553};
c584 = newc; Line(c584) = {p553,p548};
c589 = newc; Line(c589) = {p558,p549};
c590 = newc; Line(c590) = {p549,p540};
c592 = newc; Line(c592) = {p557,p553};
c595 = newc; Line(c595) = {p563,p562};
c596 = newc; Line(c596) = {p562,p554};
c603 = newc; Line(c603) = {p549,p562};
c616 = newc; Line(c616) = {p616,p634};
c617 = newc; Line(c617) = {p634,p638};
c618 = newc; Line(c618) = {p638,p637};
c619 = newc; Line(c619) = {p637,p630};
c620 = newc; Line(c620) = {p630,p616};
c621 = newc; Line(c621) = {p616,p628};
c622 = newc; Line(c622) = {p628,p629};
c623 = newc; Line(c623) = {p629,p619};
c624 = newc; Line(c624) = {p619,p626};
c625 = newc; Line(c625) = {p626,p634};
c628 = newc; Line(c628) = {p630,p615};
c629 = newc; Line(c629) = {p615,p618};
c630 = newc; Line(c630) = {p618,p624};
c631 = newc; Line(c631) = {p624,p627};
c632 = newc; Line(c632) = {p627,p628};
c634 = newc; Line(c634) = {p617,p623};
c635 = newc; Line(c635) = {p623,p633};
c636 = newc; Line(c636) = {p633,p621};
c637 = newc; Line(c637) = {p621,p642};
c638 = newc; Line(c638) = {p642,p640};
c639 = newc; Line(c639) = {p640,p617};
c640 = newc; Line(c640) = {p617,p620};
c641 = newc; Line(c641) = {p620,p636};
c642 = newc; Line(c642) = {p636,p635};
c643 = newc; Line(c643) = {p635,p623};
c646 = newc; Line(c646) = {p640,p625};
c647 = newc; Line(c647) = {p625,p624};
c649 = newc; Line(c649) = {p618,p620};
c652 = newc; Line(c652) = {p615,p636};
c655 = newc; Line(c655) = {p619,p631};
c656 = newc; Line(c656) = {p631,p632};
c657 = newc; Line(c657) = {p632,p626};
c660 = newc; Line(c660) = {p629,p622};
c661 = newc; Line(c661) = {p622,p631};
c664 = newc; Line(c664) = {p633,p638};
c668 = newc; Line(c668) = {p632,p621};
c672 = newc; Line(c672) = {p622,p639};
c673 = newc; Line(c673) = {p639,p641};
c674 = newc; Line(c674) = {p641,p642};
c679 = newc; Line(c679) = {p627,p639};
c682 = newc; Line(c682) = {p635,p637};
c687 = newc; Line(c687) = {p625,p641};
c703 = newc; Line(c703) = {p703,p704};
c704 = newc; Line(c704) = {p704,p723};
c705 = newc; Line(c705) = {p723,p702};
c706 = newc; Line(c706) = {p702,p726};
c707 = newc; Line(c707) = {p726,p727};
c708 = newc; Line(c708) = {p727,p718};
c709 = newc; Line(c709) = {p718,p703};
c710 = newc; Line(c710) = {p703,p705};
c711 = newc; Line(c711) = {p705,p708};
c712 = newc; Line(c712) = {p708,p711};
c713 = newc; Line(c713) = {p711,p704};
c716 = newc; Line(c716) = {p718,p714};
c717 = newc; Line(c717) = {p714,p713};
c718 = newc; Line(c718) = {p713,p705};
c721 = newc; Line(c721) = {p711,p722};
c722 = newc; Line(c722) = {p722,p712};
c723 = newc; Line(c723) = {p712,p723};
c726 = newc; Line(c726) = {p713,p716};
c727 = newc; Line(c727) = {p716,p721};
c728 = newc; Line(c728) = {p721,p708};
c730 = newc; Line(c730) = {p706,p710};
c731 = newc; Line(c731) = {p710,p707};
c732 = newc; Line(c732) = {p707,p726};
c734 = newc; Line(c734) = {p702,p724};
c735 = newc; Line(c735) = {p724,p725};
c736 = newc; Line(c736) = {p725,p717};
c737 = newc; Line(c737) = {p717,p706};
c738 = newc; Line(c738) = {p706,p715};
c739 = newc; Line(c739) = {p715,p720};
c740 = newc; Line(c740) = {p720,p710};
c743 = newc; Line(c743) = {p717,p719};
c744 = newc; Line(c744) = {p719,p715};
c746 = newc; Line(c746) = {p707,p709};
c747 = newc; Line(c747) = {p709,p727};
c752 = newc; Line(c752) = {p720,p716};
c755 = newc; Line(c755) = {p714,p709};
c758 = newc; Line(c758) = {p721,p719};
c761 = newc; Line(c761) = {p725,p722};
c771 = newc; Line(c771) = {p724,p712};
// END  Edges


 // BEGIN  CurveLoops
cl1 = newcl; Line Loop(cl1) = {c1,c2,c3,c4,c5};
cl2 = newcl; Line Loop(cl2) = {c6,c7,c8,-c1};
cl3 = newcl; Line Loop(cl3) = {-c5,c11,c12,c13,c14,c15,c16,-c6};
cl4 = newcl; Line Loop(cl4) = {c18,c19,c20,c21,c22};
cl5 = newcl; Line Loop(cl5) = {c23,-c12,c25,-c18};
cl6 = newcl; Line Loop(cl6) = {-c22,c28,c29,c30,-c13,-c23};
cl7 = newcl; Line Loop(cl7) = {-c16,c34,c35,c36,c37,-c7};
cl8 = newcl; Line Loop(cl8) = {c39,c40,-c20,c42,-c3,c44,-c36};
cl9 = newcl; Line Loop(cl9) = {-c35,c47,c48,c49,-c39};
cl10 = newcl; Line Loop(cl10) = {-c34,-c15,c53,c54,-c47};
cl11 = newcl; Line Loop(cl11) = {-c40,-c49,c58,c59,-c28,-c21};
cl12 = newcl; Line Loop(cl12) = {c62,c63,-c29,-c59};
cl13 = newcl; Line Loop(cl13) = {-c58,-c48,-c54,c69,-c62};
cl14 = newcl; Line Loop(cl14) = {-c25,-c11,-c4,-c42,-c19};
cl15 = newcl; Line Loop(cl15) = {-c53,-c14,-c30,-c63,-c69};
cl16 = newcl; Line Loop(cl16) = {-c44,-c2,-c8,-c37};
cl17 = newcl; Line Loop(cl17) = {c85,c86,c87,c88,c89};
cl18 = newcl; Line Loop(cl18) = {c90,c91,c92,-c85};
cl19 = newcl; Line Loop(cl19) = {-c89,c95,c96,c97,c98,-c90};
cl20 = newcl; Line Loop(cl20) = {c100,-c96,c102,c103,-c18};
cl21 = newcl; Line Loop(cl21) = {c23,c106,c107,-c97,-c100};
cl23 = newcl; Line Loop(cl23) = {-c88,c115,c116,c117,-c102,-c95};
cl24 = newcl; Line Loop(cl24) = {-c12,c121,c122,c123,c124,c125,-c106};
cl25 = newcl; Line Loop(cl25) = {-c103,-c117,c129,-c121,c25};
cl26 = newcl; Line Loop(cl26) = {-c123,c133,-c115,-c87,c136};
cl27 = newcl; Line Loop(cl27) = {-c136,-c86,-c92,c140,-c124};
cl28 = newcl; Line Loop(cl28) = {-c116,-c133,-c122,-c129};
cl29 = newcl; Line Loop(cl29) = {-c140,-c91,-c98,-c107,-c125};
cl30 = newcl; Line Loop(cl30) = {c151,c152,c153,c154,c155,c156};
cl31 = newcl; Line Loop(cl31) = {c157,-c1,c159,c160,-c151};
cl32 = newcl; Line Loop(cl32) = {-c156,c163,c164,c8,-c157};
cl33 = newcl; Line Loop(cl33) = {c167,c168,c169,c170,-c154,c172};
cl34 = newcl; Line Loop(cl34) = {c173,c174,c175,c176,-c167};
cl35 = newcl; Line Loop(cl35) = {-c172,-c153,c180,-c173};
cl36 = newcl; Line Loop(cl36) = {-c180,-c152,-c160,c185,-c174};
cl37 = newcl; Line Loop(cl37) = {-c176,c188,c189,c190,-c168};
cl38 = newcl; Line Loop(cl38) = {c192,-c163,-c155,-c170,c196,c197};
cl39 = newcl; Line Loop(cl39) = {c198,c199,c7,-c164,-c192};
cl40 = newcl; Line Loop(cl40) = {-c197,c204,-c189,c206,-c198};
cl41 = newcl; Line Loop(cl41) = {-c196,-c169,-c190,-c204};
cl43 = newcl; Line Loop(cl43) = {-c159,c6,-c199,-c206,-c188,-c175,-c185};
cl44 = newcl; Line Loop(cl44) = {c223,-c30,c225,c226};
cl45 = newcl; Line Loop(cl45) = {c227,c228,c229,c230,c231,-c14,-c223};
cl46 = newcl; Line Loop(cl46) = {-c226,c235,c236,c237,c238,-c227};
cl47 = newcl; Line Loop(cl47) = {c240,c241,c242,c243};
cl48 = newcl; Line Loop(cl48) = {c244,c245,c246,-c230,c248,-c240};
cl49 = newcl; Line Loop(cl49) = {-c243,c251,c252,-c244};
cl50 = newcl; Line Loop(cl50) = {-c242,c255,c256,c257,c258,c259,-c251};
cl51 = newcl; Line Loop(cl51) = {-c69,c262,c263,c264,c265};
cl53 = newcl; Line Loop(cl53) = {-c265,c272,-c235,-c225,-c63};
cl54 = newcl; Line Loop(cl54) = {-c231,-c246,c278,-c262,-c53};
cl55 = newcl; Line Loop(cl55) = {c281,-c258,c283,-c236,-c272,-c264};
cl56 = newcl; Line Loop(cl56) = {-c263,-c278,-c245,-c252,-c259,-c281};
cl57 = newcl; Line Loop(cl57) = {-c241,-c248,-c229,c296,-c255};
cl58 = newcl; Line Loop(cl58) = {-c238,c299,-c256,-c296,-c228};
cl59 = newcl; Line Loop(cl59) = {-c283,-c257,-c299,-c237};
cl60 = newcl; Line Loop(cl60) = {c307,c123,c309,c310,-c175};
cl61 = newcl; Line Loop(cl61) = {-c185,c313,c314,c122,-c307};
cl63 = newcl; Line Loop(cl63) = {c324,c229,c326,-c188,-c310};
cl64 = newcl; Line Loop(cl64) = {-c309,c124,c331,c228,-c324};
cl66 = newcl; Line Loop(cl66) = {c341,c231,c15,c344};
cl67 = newcl; Line Loop(cl67) = {c345,-c206,-c326,c230,-c341};
cl68 = newcl; Line Loop(cl68) = {-c344,c16,-c199,-c345};
cl69 = newcl; Line Loop(cl69) = {c125,c355,c227,-c331};
cl72 = newcl; Line Loop(cl72) = {c373,c11,c121,-c314};
cl73 = newcl; Line Loop(cl73) = {-c313,-c159,-c5,-c373};
cl74 = newcl; Line Loop(cl74) = {-c223,-c355,-c106,c13};
cl385 = newcl; Line Loop(cl385) = {c385,c386,c387,c388,c389,c390};
cl386 = newcl; Line Loop(cl386) = {c391,c392,c393,c394,c395,c396,c397,-c385};
cl387 = newcl; Line Loop(cl387) = {-c390,c400,c401,-c391};
cl388 = newcl; Line Loop(cl388) = {-c393,c404,c405,c406,c407};
cl389 = newcl; Line Loop(cl389) = {-c407,c409,c410,-c394};
cl390 = newcl; Line Loop(cl390) = {-c401,c413,c414,-c404,-c392};
cl391 = newcl; Line Loop(cl391) = {c417,c418,c419,c420,c421};
cl392 = newcl; Line Loop(cl392) = {c422,-c386,-c397,c425,-c417};
cl393 = newcl; Line Loop(cl393) = {-c421,c428,c429,-c387,-c422};
cl394 = newcl; Line Loop(cl394) = {c432,-c428,-c420,c435,c436,c437};
cl395 = newcl; Line Loop(cl395) = {c438,-c405,-c414,c441,-c388,-c429,-c432};
cl396 = newcl; Line Loop(cl396) = {-c437,c446,-c409,-c406,-c438};
cl397 = newcl; Line Loop(cl397) = {-c441,-c413,-c400,-c389};
cl398 = newcl; Line Loop(cl398) = {c454,c455,-c418,-c425,-c396};
cl399 = newcl; Line Loop(cl399) = {-c395,-c410,-c446,-c436,c463,-c454};
cl400 = newcl; Line Loop(cl400) = {-c463,-c435,-c419,-c455};
cl472 = newcl; Line Loop(cl472) = {c472,c473,c474,c475,c476};
cl473 = newcl; Line Loop(cl473) = {c477,c478,c479,c480,c481,-c472};
cl474 = newcl; Line Loop(cl474) = {-c476,c484,c485,c486,-c477};
cl475 = newcl; Line Loop(cl475) = {-c485,c489,c490,c491,c492};
cl476 = newcl; Line Loop(cl476) = {-c492,c494,c495,c496,-c478,-c486};
cl477 = newcl; Line Loop(cl477) = {-c496,c500,c501,c502,-c479};
cl478 = newcl; Line Loop(cl478) = {c504,-c473,-c481,c507};
cl479 = newcl; Line Loop(cl479) = {c508,c509,c510,-c490,c512,-c474,-c504};
cl480 = newcl; Line Loop(cl480) = {-c507,-c480,-c502,c518,-c508};
cl481 = newcl; Line Loop(cl481) = {-c512,-c489,-c484,-c475};
cl482 = newcl; Line Loop(cl482) = {c524,c525,-c494,-c491,-c510};
cl483 = newcl; Line Loop(cl483) = {-c509,-c518,-c501,c532,-c524};
cl484 = newcl; Line Loop(cl484) = {-c532,-c500,-c495,-c525};
cl541 = newcl; Line Loop(cl541) = {c541,c542,c543,c544,c545,c546};
cl542 = newcl; Line Loop(cl542) = {c547,c548,c549,c550,c551,-c541};
cl543 = newcl; Line Loop(cl543) = {-c546,c554,c555,c556,-c547};
cl544 = newcl; Line Loop(cl544) = {-c550,c559,c560,c561};
cl545 = newcl; Line Loop(cl545) = {-c561,c563,c564,c565,-c542,-c551};
cl546 = newcl; Line Loop(cl546) = {-c560,c569,c570,c571,-c563};
cl547 = newcl; Line Loop(cl547) = {c573,c574,c575,-c555};
cl548 = newcl; Line Loop(cl548) = {-c554,-c545,c579,c580,-c573};
cl549 = newcl; Line Loop(cl549) = {-c575,c583,c584,-c548,-c556};
cl550 = newcl; Line Loop(cl550) = {-c574,-c580,c589,c590,-c570,c592,-c583};
cl551 = newcl; Line Loop(cl551) = {-c565,c595,c596,-c543};
cl552 = newcl; Line Loop(cl552) = {-c584,-c592,-c569,-c559,-c549};
cl553 = newcl; Line Loop(cl553) = {c603,-c595,-c564,-c571,-c590};
cl554 = newcl; Line Loop(cl554) = {-c589,-c579,-c544,-c596,-c603};
cl616 = newcl; Line Loop(cl616) = {c616,c617,c618,c619,c620};
cl617 = newcl; Line Loop(cl617) = {c621,c622,c623,c624,c625,-c616};
cl618 = newcl; Line Loop(cl618) = {-c620,c628,c629,c630,c631,c632,-c621};
cl619 = newcl; Line Loop(cl619) = {c634,c635,c636,c637,c638,c639};
cl620 = newcl; Line Loop(cl620) = {c640,c641,c642,c643,-c634};
cl621 = newcl; Line Loop(cl621) = {-c639,c646,c647,-c630,c649,-c640};
cl622 = newcl; Line Loop(cl622) = {-c629,c652,-c641,-c649};
cl623 = newcl; Line Loop(cl623) = {c655,c656,c657,-c624};
cl624 = newcl; Line Loop(cl624) = {-c623,c660,c661,-c655};
cl625 = newcl; Line Loop(cl625) = {-c636,c664,-c617,-c625,-c657,c668};
cl626 = newcl; Line Loop(cl626) = {-c668,-c656,-c661,c672,c673,c674,-c637};
cl627 = newcl; Line Loop(cl627) = {-c660,-c622,-c632,c679,-c672};
cl628 = newcl; Line Loop(cl628) = {-c643,c682,-c618,-c664,-c635};
cl629 = newcl; Line Loop(cl629) = {-c647,c687,-c673,-c679,-c631};
cl630 = newcl; Line Loop(cl630) = {-c646,-c638,-c674,-c687};
cl631 = newcl; Line Loop(cl631) = {-c619,-c682,-c642,-c652,-c628};
cl703 = newcl; Line Loop(cl703) = {c703,c704,c705,c706,c707,c708,c709};
cl704 = newcl; Line Loop(cl704) = {c710,c711,c712,c713,-c703};
cl705 = newcl; Line Loop(cl705) = {-c709,c716,c717,c718,-c710};
cl706 = newcl; Line Loop(cl706) = {-c713,c721,c722,c723,-c704};
cl707 = newcl; Line Loop(cl707) = {-c718,c726,c727,c728,-c711};
cl708 = newcl; Line Loop(cl708) = {c730,c731,c732,-c706,c734,c735,c736,c737};
cl709 = newcl; Line Loop(cl709) = {c738,c739,c740,-c730};
cl710 = newcl; Line Loop(cl710) = {-c737,c743,c744,-c738};
cl711 = newcl; Line Loop(cl711) = {c746,c747,-c707,-c732};
cl712 = newcl; Line Loop(cl712) = {-c731,-c740,c752,-c726,-c717,c755,-c746};
cl713 = newcl; Line Loop(cl713) = {-c728,c758,-c743,-c736,c761,-c721,-c712};
cl714 = newcl; Line Loop(cl714) = {-c755,-c716,-c708,-c747};
cl715 = newcl; Line Loop(cl715) = {-c722,-c761,-c735,c771};
cl716 = newcl; Line Loop(cl716) = {-c771,-c734,-c705,-c723};
cl717 = newcl; Line Loop(cl717) = {-c744,-c758,-c727,-c752,-c739};
// END  CurveLoops


 // BEGIN  Surfaces
s59 = news; Plane Surface(s59) = {cl59};
s68 = news; Plane Surface(s68) = {cl68};
s51 = news; Plane Surface(s51) = {cl51};
s60 = news; Plane Surface(s60) = {cl60};
s47 = news; Plane Surface(s47) = {cl47};
s74 = news; Plane Surface(s74) = {cl74};
s44 = news; Plane Surface(s44) = {cl44};
s49 = news; Plane Surface(s49) = {cl49};
s41 = news; Plane Surface(s41) = {cl41};
s72 = news; Plane Surface(s72) = {cl72};
s39 = news; Plane Surface(s39) = {cl39};
s58 = news; Plane Surface(s58) = {cl58};
s35 = news; Plane Surface(s35) = {cl35};
s66 = news; Plane Surface(s66) = {cl66};
s34 = news; Plane Surface(s34) = {cl34};
s54 = news; Plane Surface(s54) = {cl54};
s32 = news; Plane Surface(s32) = {cl32};
s64 = news; Plane Surface(s64) = {cl64};
s30 = news; Plane Surface(s30) = {cl30};
s55 = news; Plane Surface(s55) = {cl55};
s27 = news; Plane Surface(s27) = {cl27};
s31 = news; Plane Surface(s31) = {cl31};
s26 = news; Plane Surface(s26) = {cl26};
s53 = news; Plane Surface(s53) = {cl53};
s25 = news; Plane Surface(s25) = {cl25};
s37 = news; Plane Surface(s37) = {cl37};
s23 = news; Plane Surface(s23) = {cl23};
s56 = news; Plane Surface(s56) = {cl56};
s21 = news; Plane Surface(s21) = {cl21};
s57 = news; Plane Surface(s57) = {cl57};
s20 = news; Plane Surface(s20) = {cl20};
s63 = news; Plane Surface(s63) = {cl63};
s19 = news; Plane Surface(s19) = {cl19};
s38 = news; Plane Surface(s38) = {cl38};
s18 = news; Plane Surface(s18) = {cl18};
s73 = news; Plane Surface(s73) = {cl73};
s16 = news; Plane Surface(s16) = {cl16};
s69 = news; Plane Surface(s69) = {cl69};
s14 = news; Plane Surface(s14) = {cl14};
s40 = news; Plane Surface(s40) = {cl40};
s13 = news; Plane Surface(s13) = {cl13};
s61 = news; Plane Surface(s61) = {cl61};
s12 = news; Plane Surface(s12) = {cl12};
s28 = news; Plane Surface(s28) = {cl28};
s11 = news; Plane Surface(s11) = {cl11};
s33 = news; Plane Surface(s33) = {cl33};
s10 = news; Plane Surface(s10) = {cl10};
s36 = news; Plane Surface(s36) = {cl36};
s9 = news; Plane Surface(s9) = {cl9};
s17 = news; Plane Surface(s17) = {cl17};
s8 = news; Plane Surface(s8) = {cl8};
s50 = news; Plane Surface(s50) = {cl50};
s7 = news; Plane Surface(s7) = {cl7};
s46 = news; Plane Surface(s46) = {cl46};
s6 = news; Plane Surface(s6) = {cl6};
s48 = news; Plane Surface(s48) = {cl48};
s4 = news; Plane Surface(s4) = {cl4};
s67 = news; Plane Surface(s67) = {cl67};
s1 = news; Plane Surface(s1) = {cl1};
s29 = news; Plane Surface(s29) = {cl29};
s2 = news; Plane Surface(s2) = {cl2};
s3 = news; Plane Surface(s3) = {cl3};
s5 = news; Plane Surface(s5) = {cl5};
s15 = news; Plane Surface(s15) = {cl15};
s24 = news; Plane Surface(s24) = {cl24};
s43 = news; Plane Surface(s43) = {cl43};
s45 = news; Plane Surface(s45) = {cl45};
s385 = news; Plane Surface(s385) = {cl385};
s386 = news; Plane Surface(s386) = {cl386};
s387 = news; Plane Surface(s387) = {cl387};
s388 = news; Plane Surface(s388) = {cl388};
s389 = news; Plane Surface(s389) = {cl389};
s390 = news; Plane Surface(s390) = {cl390};
s391 = news; Plane Surface(s391) = {cl391};
s392 = news; Plane Surface(s392) = {cl392};
s393 = news; Plane Surface(s393) = {cl393};
s394 = news; Plane Surface(s394) = {cl394};
s395 = news; Plane Surface(s395) = {cl395};
s396 = news; Plane Surface(s396) = {cl396};
s397 = news; Plane Surface(s397) = {cl397};
s398 = news; Plane Surface(s398) = {cl398};
s399 = news; Plane Surface(s399) = {cl399};
s400 = news; Plane Surface(s400) = {cl400};
s472 = news; Plane Surface(s472) = {cl472};
s473 = news; Plane Surface(s473) = {cl473};
s474 = news; Plane Surface(s474) = {cl474};
s475 = news; Plane Surface(s475) = {cl475};
s476 = news; Plane Surface(s476) = {cl476};
s477 = news; Plane Surface(s477) = {cl477};
s478 = news; Plane Surface(s478) = {cl478};
s479 = news; Plane Surface(s479) = {cl479};
s480 = news; Plane Surface(s480) = {cl480};
s481 = news; Plane Surface(s481) = {cl481};
s482 = news; Plane Surface(s482) = {cl482};
s483 = news; Plane Surface(s483) = {cl483};
s484 = news; Plane Surface(s484) = {cl484};
s541 = news; Plane Surface(s541) = {cl541};
s542 = news; Plane Surface(s542) = {cl542};
s543 = news; Plane Surface(s543) = {cl543};
s544 = news; Plane Surface(s544) = {cl544};
s545 = news; Plane Surface(s545) = {cl545};
s546 = news; Plane Surface(s546) = {cl546};
s547 = news; Plane Surface(s547) = {cl547};
s548 = news; Plane Surface(s548) = {cl548};
s549 = news; Plane Surface(s549) = {cl549};
s550 = news; Plane Surface(s550) = {cl550};
s551 = news; Plane Surface(s551) = {cl551};
s552 = news; Plane Surface(s552) = {cl552};
s553 = news; Plane Surface(s553) = {cl553};
s554 = news; Plane Surface(s554) = {cl554};
s616 = news; Plane Surface(s616) = {cl616};
s617 = news; Plane Surface(s617) = {cl617};
s618 = news; Plane Surface(s618) = {cl618};
s619 = news; Plane Surface(s619) = {cl619};
s620 = news; Plane Surface(s620) = {cl620};
s621 = news; Plane Surface(s621) = {cl621};
s622 = news; Plane Surface(s622) = {cl622};
s623 = news; Plane Surface(s623) = {cl623};
s624 = news; Plane Surface(s624) = {cl624};
s625 = news; Plane Surface(s625) = {cl625};
s626 = news; Plane Surface(s626) = {cl626};
s627 = news; Plane Surface(s627) = {cl627};
s628 = news; Plane Surface(s628) = {cl628};
s629 = news; Plane Surface(s629) = {cl629};
s630 = news; Plane Surface(s630) = {cl630};
s631 = news; Plane Surface(s631) = {cl631};
s703 = news; Plane Surface(s703) = {cl703};
s704 = news; Plane Surface(s704) = {cl704};
s705 = news; Plane Surface(s705) = {cl705};
s706 = news; Plane Surface(s706) = {cl706};
s707 = news; Plane Surface(s707) = {cl707};
s708 = news; Plane Surface(s708) = {cl708};
s709 = news; Plane Surface(s709) = {cl709};
s710 = news; Plane Surface(s710) = {cl710};
s711 = news; Plane Surface(s711) = {cl711};
s712 = news; Plane Surface(s712) = {cl712};
s713 = news; Plane Surface(s713) = {cl713};
s714 = news; Plane Surface(s714) = {cl714};
s715 = news; Plane Surface(s715) = {cl715};
s716 = news; Plane Surface(s716) = {cl716};
s717 = news; Plane Surface(s717) = {cl717};
// END  Surfaces


 // BEGIN  SurfaceLoop
sl1 = newsl; Surface Loop(sl1) = {s1,s2,s3,s4,s5,s6,s7,s8,s9,s10,s11,s12,s13,s14,s15,s16};
sl2 = newsl; Surface Loop(sl2) = {s17,s18,s19,s20,s21,s5,s23,s24,s25,s26,s27,s28,s29};
sl3 = newsl; Surface Loop(sl3) = {s30,s31,s32,s33,s34,s35,s36,s37,s38,s39,s40,s41,s2,s43};
sl4 = newsl; Surface Loop(sl4) = {s44,s45,s46,s47,s48,s49,s50,s51,s15,s53,s54,s55,s56,s57,s58,s59};
sl5 = newsl; Surface Loop(sl5) = {s60,s61,s43,s63,s64,s24,s66,s67,s68,s69,s3,s45,s72,s73,s74};
sl385 = newsl; Surface Loop(sl385) = {s385,s386,s387,s388,s389,s390,s391,s392,s393,s394,s395,s396,s397,s398,s399,s400};
sl472 = newsl; Surface Loop(sl472) = {s472,s473,s474,s475,s476,s477,s478,s479,s480,s481,s482,s483,s484};
sl541 = newsl; Surface Loop(sl541) = {s541,s542,s543,s544,s545,s546,s547,s548,s549,s550,s551,s552,s553,s554};
sl616 = newsl; Surface Loop(sl616) = {s616,s617,s618,s619,s620,s621,s622,s623,s624,s625,s626,s627,s628,s629,s630,s631};
sl703 = newsl; Surface Loop(sl703) = {s703,s704,s705,s706,s707,s708,s709,s710,s711,s712,s713,s714,s715,s716,s717};
// END  SurfaceLoop


 // BEGIN  Matrix volume
v385 = newv; Volume(v385) = {sl385};
v470 = newv; Volume(v470) = {sl1,sl385};
v472 = newv; Volume(v472) = {sl472};
v539 = newv; Volume(v539) = {sl2,sl472};
v541 = newv; Volume(v541) = {sl541};
v614 = newv; Volume(v614) = {sl3,sl541};
v616 = newv; Volume(v616) = {sl616};
v701 = newv; Volume(v701) = {sl4,sl616};
v703 = newv; Volume(v703) = {sl703};
v782 = newv; Volume(v782) = {sl5,sl703};
// END  Matrix volume


 // BEGIN  Periodic surfaces of the enveloppe
Periodic Surface { s1 }={ s29 } Translate {0,-1,0};
Periodic Surface { s67 }={ s4 } Translate {-1,-0,-0};
Periodic Surface { s48 }={ s6 } Translate {-1,-0,-0};
Periodic Surface { s7 }={ s46 } Translate {0,-1,0};
Periodic Surface { s50 }={ s8 } Translate {-1,1,-0};
Periodic Surface { s9 }={ s17 } Translate {0,-1,1};
Periodic Surface { s36 }={ s10 } Translate {-0,-0,-1};
Periodic Surface { s33 }={ s11 } Translate {-1,-0,-1};
Periodic Surface { s28 }={ s12 } Translate {-0,-0,-1};
Periodic Surface { s61 }={ s13 } Translate {-0,-0,-1};
Periodic Surface { s40 }={ s14 } Translate {-1,-0,-0};
Periodic Surface { s16 }={ s69 } Translate {0,-1,0};
Periodic Surface { s73 }={ s18 } Translate {0,-1,0};
Periodic Surface { s38 }={ s19 } Translate {-1,-1,-0};
Periodic Surface { s63 }={ s20 } Translate {-1,-0,-0};
Periodic Surface { s57 }={ s21 } Translate {-1,-0,-0};
Periodic Surface { s56 }={ s23 } Translate {-1,-0,1};
Periodic Surface { s37 }={ s25 } Translate {-1,-0,-0};
Periodic Surface { s26 }={ s53 } Translate {0,0,-1};
Periodic Surface { s31 }={ s27 } Translate {0,-1,0};
Periodic Surface { s30 }={ s55 } Translate {0,-1,-1};
Periodic Surface { s32 }={ s64 } Translate {0,-1,0};
Periodic Surface { s34 }={ s54 } Translate {-0,-0,-1};
Periodic Surface { s35 }={ s66 } Translate {-0,-0,-1};
Periodic Surface { s39 }={ s58 } Translate {0,-1,0};
Periodic Surface { s41 }={ s72 } Translate {-1,-0,-0};
Periodic Surface { s49 }={ s44 } Translate {-1,-0,-0};
Periodic Surface { s47 }={ s74 } Translate {-1,-0,-0};
Periodic Surface { s60 }={ s51 } Translate {-0,-0,-1};
Periodic Surface { s68 }={ s59 } Translate {0,-1,0};
// END  Periodic surfaces of the enveloppe


 // BEGIN  Physical volumes
Physical Volume(1) = {v470,v539,v614,v701,v782};
Physical Volume(2) = {v385};
Physical Volume(3) = {v472};
Physical Volume(4) = {v541};
Physical Volume(5) = {v616};
Physical Volume(6) = {v703};
// END  Physical volumes


 // BEGIN  Physical surfaces
Physical Surface(1) = {s1,s2,s3,s4,s5,s6,s7,s8,s9,s10,s11,s12,s13,s14,s15,s16,s385,s386,s387,s388,s389,s390,s391,s392,s393,s394,s395,s396,s397,s398,s399,s400,s17,s18,s19,s20,s21,s5,s23,s24,s25,s26,s27,s28,s29,s472,s473,s474,s475,s476,s477,s478,s479,s480,s481,s482,s483,s484,s30,s31,s32,s33,s34,s35,s36,s37,s38,s39,s40,s41,s2,s43,s541,s542,s543,s544,s545,s546,s547,s548,s549,s550,s551,s552,s553,s554,s44,s45,s46,s47,s48,s49,s50,s51,s15,s53,s54,s55,s56,s57,s58,s59,s616,s617,s618,s619,s620,s621,s622,s623,s624,s625,s626,s627,s628,s629,s630,s631,s60,s61,s43,s63,s64,s24,s66,s67,s68,s69,s3,s45,s72,s73,s74,s703,s704,s705,s706,s707,s708,s709,s710,s711,s712,s713,s714,s715,s716,s717};
Physical Surface(2) = {s385,s386,s387,s388,s389,s390,s391,s392,s393,s394,s395,s396,s397,s398,s399,s400};
Physical Surface(3) = {s472,s473,s474,s475,s476,s477,s478,s479,s480,s481,s482,s483,s484};
Physical Surface(4) = {s541,s542,s543,s544,s545,s546,s547,s548,s549,s550,s551,s552,s553,s554};
Physical Surface(5) = {s616,s617,s618,s619,s620,s621,s622,s623,s624,s625,s626,s627,s628,s629,s630,s631};
Physical Surface(6) = {s703,s704,s705,s706,s707,s708,s709,s710,s711,s712,s713,s714,s715,s716,s717};
Physical Surface(7) = {s1,s4,s6,s7,s8,s9,s10,s11,s12,s13,s14,s16,s17,s18,s19,s20,s21,s23,s25,s26,s27,s28,s29,s30,s31,s32,s33,s34,s35,s36,s37,s38,s39,s40,s41,s44,s46,s47,s48,s49,s50,s51,s53,s54,s55,s56,s57,s58,s59,s60,s61,s63,s64,s66,s67,s68,s69,s72,s73,s74};
// END  Physical surfaces


MeshSize {:} =0.050000000000000003;

Mesh.ElementOrder =2;
Mesh 2;
Mesh 3;
Mesh.MshFileVersion = 2.2;
Save "5grains.med";
Save "5grains.vtk";
