// File automatically generated by Merope 
SetFactory("OpenCASCADE");
// Ask OpenCASCADE to compute more accurate bounding boxes of entities using the 
// STL mesh: 
Geometry.OCCBoundsUseStl = 1;
meshSize = 0;  // WARNING : Default value. Correct value is at the end of the script.

 // BEGIN  Points
p47 = newp; Point(p47)={1.191808829089569,0.53441625607977983,0.32897539520346841,meshSize};
p60 = newp; Point(p60)={0.19180882908956898,0.53441625607977983,0.32897539520346841,meshSize};
p82 = newp; Point(p82)={0.19180882908956898,0.53441625607977983,1.3289753952034684,meshSize};
p38 = newp; Point(p38)={1.2832417841389727,0.93578687705248798,0.63755442319242805,meshSize};
p51 = newp; Point(p51)={0.28324178413897272,-0.064213122947512025,0.63755442319242805,meshSize};
p98 = newp; Point(p98)={0.28324178413897272,0.93578687705248798,0.63755442319242805,meshSize};
p35 = newp; Point(p35)={0.51093074405698879,0.83653651425194431,0.26665265013224754,meshSize};
p52 = newp; Point(p52)={0.51093074405698879,-0.16346348574805569,0.26665265013224754,meshSize};
p88 = newp; Point(p88)={0.51093074405698879,0.83653651425194431,1.2666526501322475,meshSize};
p29 = newp; Point(p29)={1.2841540206147701,0.7985923000799855,0.3657512701953739,meshSize};
p73 = newp; Point(p73)={0.28415402061477013,-0.2014076999200145,0.3657512701953739,meshSize};
p81 = newp; Point(p81)={0.28415402061477013,0.7985923000799855,1.365751270195374,meshSize};
p105 = newp; Point(p105)={0.28415402061477013,0.7985923000799855,0.3657512701953739,meshSize};
p28 = newp; Point(p28)={1.1671971220853521,0.10136317569375823,0.74369316192967516,meshSize};
p64 = newp; Point(p64)={0.16719712208535209,0.10136317569375823,0.74369316192967516,meshSize};
p102 = newp; Point(p102)={0.16719712208535209,1.1013631756937583,0.74369316192967516,meshSize};
p27 = newp; Point(p27)={1.1258191319022073,0.27644303218643601,0.8311583397690252,meshSize};
p53 = newp; Point(p53)={0.12581913190220728,0.27644303218643601,-0.1688416602309748,meshSize};
p89 = newp; Point(p89)={0.12581913190220728,0.27644303218643601,0.8311583397690252,meshSize};
p26 = newp; Point(p26)={0.51164248271591495,-0.028531538542031804,0.53273814639172712,meshSize};
p42 = newp; Point(p42)={0.51164248271591495,0.97146846145796817,0.53273814639172712,meshSize};
p25 = newp; Point(p25)={0.34729687603089299,-0.024686041873996034,0.66649186756411516,meshSize};
p97 = newp; Point(p97)={0.34729687603089299,0.97531395812600397,0.66649186756411516,meshSize};
p24 = newp; Point(p24)={0.69516557022867864,-0.29116682440966934,0.89925297102911739,meshSize};
p43 = newp; Point(p43)={0.69516557022867864,0.70883317559033066,0.89925297102911739,meshSize};
p86 = newp; Point(p86)={-0.30483442977132136,0.70883317559033066,0.89925297102911739,meshSize};
p23 = newp; Point(p23)={1.1218306404163705,0.057464853218030076,0.71256658867016442,meshSize};
p44 = newp; Point(p44)={1.1218306404163705,1.05746485321803,0.71256658867016442,meshSize};
p56 = newp; Point(p56)={0.12183064041637048,0.057464853218030076,0.71256658867016442,meshSize};
p99 = newp; Point(p99)={0.12183064041637048,1.05746485321803,0.71256658867016442,meshSize};
p22 = newp; Point(p22)={0.62210777792123972,0.080405741543348702,1.4136508299596611,meshSize};
p41 = newp; Point(p41)={0.62210777792123972,1.0804057415433488,0.41365082995966107,meshSize};
p59 = newp; Point(p59)={0.62210777792123972,0.080405741543348702,0.41365082995966107,meshSize};
p21 = newp; Point(p21)={0.88662047509149666,-0.085096919660946846,1.1859608192238866,meshSize};
p32 = newp; Point(p32)={0.88662047509149666,0.91490308033905321,0.18596081922388663,meshSize};
p62 = newp; Point(p62)={-0.11337952490850334,-0.085096919660946846,0.18596081922388663,meshSize};
p91 = newp; Point(p91)={-0.11337952490850334,0.91490308033905321,1.1859608192238866,meshSize};
p20 = newp; Point(p20)={0.86554918876605769,0.4418302953236336,1.1846410983175293,meshSize};
p36 = newp; Point(p36)={0.86554918876605769,0.4418302953236336,0.18464109831752928,meshSize};
p55 = newp; Point(p55)={-0.13445081123394231,0.4418302953236336,0.18464109831752928,meshSize};
p93 = newp; Point(p93)={-0.13445081123394231,0.4418302953236336,1.1846410983175293,meshSize};
p19 = newp; Point(p19)={0.63522934813977194,-0.32712537343493275,1.02263788034611,meshSize};
p76 = newp; Point(p76)={0.63522934813977194,0.67287462656506725,1.02263788034611,meshSize};
p78 = newp; Point(p78)={-0.36477065186022806,0.67287462656506725,1.02263788034611,meshSize};
p18 = newp; Point(p18)={0.59028391968032956,0.58092823359750023,1.1485948644108441,meshSize};
p48 = newp; Point(p48)={0.59028391968032956,0.58092823359750023,0.14859486441084413,meshSize};
p17 = newp; Point(p17)={0.74350037764384702,0.57769790324207082,0.87515205550187603,meshSize};
p96 = newp; Point(p96)={-0.25649962235615298,0.57769790324207082,0.87515205550187603,meshSize};
p16 = newp; Point(p16)={0.63522934813977194,0.63962188462006209,1.0782415017856899,meshSize};
p40 = newp; Point(p40)={0.63522934813977194,0.63962188462006209,0.078241501785689893,meshSize};
p83 = newp; Point(p83)={-0.36477065186022806,0.63962188462006209,1.0782415017856899,meshSize};
p15 = newp; Point(p15)={0.37753101942222023,0.36510349214922833,0.97626194353070761,meshSize};
p54 = newp; Point(p54)={0.37753101942222023,0.36510349214922833,-0.02373805646929239,meshSize};
p14 = newp; Point(p14)={0.63522934813977194,0.64482374546323129,1.0358460549719521,meshSize};
p77 = newp; Point(p77)={-0.36477065186022806,0.64482374546323129,1.0358460549719521,meshSize};
p13 = newp; Point(p13)={0.79733803295727101,0.25478060160822369,0.50401656039618348,meshSize};
p70 = newp; Point(p70)={-0.20266196704272899,0.25478060160822369,0.50401656039618348,meshSize};
p12 = newp; Point(p12)={0.48925427700211277,0.46668541066603075,1.162558876995889,meshSize};
p65 = newp; Point(p65)={0.48925427700211277,0.46668541066603075,0.162558876995889,meshSize};
p11 = newp; Point(p11)={0.70613700968755944,0.1291477409174234,1.4252786050109538,meshSize};
p30 = newp; Point(p30)={0.70613700968755944,1.1291477409174233,0.42527860501095383,meshSize};
p69 = newp; Point(p69)={-0.29386299031244056,0.1291477409174234,0.42527860501095383,meshSize};
p111 = newp; Point(p111)={0.70613700968755944,0.1291477409174234,0.42527860501095383,meshSize};
p10 = newp; Point(p10)={0.71977297382603145,0.13426247699369148,0.44954537481726997,meshSize};
p46 = newp; Point(p46)={0.71977297382603145,1.1342624769936915,0.44954537481726997,meshSize};
p57 = newp; Point(p57)={-0.28022702617396855,0.13426247699369148,0.44954537481726997,meshSize};
p9 = newp; Point(p9)={1.0378363974075531,0.2974220366022986,0.66378842106909586,meshSize};
p68 = newp; Point(p68)={0.037836397407553068,0.2974220366022986,0.66378842106909586,meshSize};
p8 = newp; Point(p8)={0.74788770624609002,0.3007705740861521,1.357023718037089,meshSize};
p39 = newp; Point(p39)={0.74788770624609002,0.3007705740861521,0.35702371803708899,meshSize};
p61 = newp; Point(p61)={-0.25211229375390998,0.3007705740861521,0.35702371803708899,meshSize};
p7 = newp; Point(p7)={1.1752381291800877,0.11216833909137515,0.77178642722229696,meshSize};
p66 = newp; Point(p66)={0.17523812918008774,0.11216833909137515,-0.22821357277770304,meshSize};
p101 = newp; Point(p101)={0.17523812918008774,1.1121683390913752,0.77178642722229696,meshSize};
p107 = newp; Point(p107)={0.17523812918008774,0.11216833909137515,0.77178642722229696,meshSize};
p6 = newp; Point(p6)={0.52023069093851981,-0.15652666990799388,1.2521846033457025,meshSize};
p50 = newp; Point(p50)={0.52023069093851981,0.84347333009200609,0.25218460334570247,meshSize};
p72 = newp; Point(p72)={0.52023069093851981,-0.15652666990799388,0.25218460334570247,meshSize};
p84 = newp; Point(p84)={0.52023069093851981,0.84347333009200609,1.2521846033457025,meshSize};
p5 = newp; Point(p5)={0.63522934813977194,-0.31976973408527043,1.0775458177589123,meshSize};
p49 = newp; Point(p49)={0.63522934813977194,0.68023026591472957,0.077545817758912339,meshSize};
p87 = newp; Point(p87)={0.63522934813977194,0.68023026591472957,1.0775458177589123,meshSize};
p95 = newp; Point(p95)={-0.36477065186022806,0.68023026591472957,1.0775458177589123,meshSize};
p4 = newp; Point(p4)={0.30556100324331498,0.030819851724230379,0.7019614072836784,meshSize};
p75 = newp; Point(p75)={0.30556100324331498,1.0308198517242304,0.7019614072836784,meshSize};
p3 = newp; Point(p3)={1.0449948395605384,0.35305919251447748,0.73508501420781069,meshSize};
p90 = newp; Point(p90)={0.044994839560538402,0.35305919251447748,0.73508501420781069,meshSize};
p2 = newp; Point(p2)={0.57544130190805132,0.043887664048826172,0.48285168565605907,meshSize};
p45 = newp; Point(p45)={0.57544130190805132,1.0438876640488262,0.48285168565605907,meshSize};
p1 = newp; Point(p1)={0.26527042539952106,0.092815074933004588,0.79899212372964334,meshSize};
p74 = newp; Point(p74)={0.26527042539952106,0.092815074933004588,-0.20100787627035666,meshSize};
p100 = newp; Point(p100)={0.26527042539952106,1.0928150749330046,0.79899212372964334,meshSize};
// END  Points


 // BEGIN  Edges
c1 = newc; Line(c1) = {p2,p26};
c2 = newc; Line(c2) = {p26,p24};
c3 = newc; Line(c3) = {p24,p23};
c4 = newc; Line(c4) = {p23,p10};
c5 = newc; Line(c5) = {p10,p2};
c6 = newc; Line(c6) = {p2,p4};
c7 = newc; Line(c7) = {p4,p25};
c8 = newc; Line(c8) = {p25,p26};
c11 = newc; Line(c11) = {p10,p13};
c12 = newc; Line(c12) = {p13,p17};
c13 = newc; Line(c13) = {p17,p14};
c14 = newc; Line(c14) = {p14,p15};
c15 = newc; Line(c15) = {p15,p1};
c16 = newc; Line(c16) = {p1,p4};
c18 = newc; Line(c18) = {p3,p9};
c19 = newc; Line(c19) = {p9,p28};
c20 = newc; Line(c20) = {p28,p7};
c21 = newc; Line(c21) = {p7,p27};
c22 = newc; Line(c22) = {p27,p3};
c23 = newc; Line(c23) = {p3,p17};
c25 = newc; Line(c25) = {p13,p9};
c28 = newc; Line(c28) = {p27,p20};
c29 = newc; Line(c29) = {p20,p16};
c30 = newc; Line(c30) = {p16,p14};
c34 = newc; Line(c34) = {p1,p6};
c35 = newc; Line(c35) = {p6,p5};
c36 = newc; Line(c36) = {p5,p19};
c37 = newc; Line(c37) = {p19,p25};
c39 = newc; Line(c39) = {p5,p21};
c40 = newc; Line(c40) = {p21,p7};
c42 = newc; Line(c42) = {p28,p23};
c44 = newc; Line(c44) = {p24,p19};
c47 = newc; Line(c47) = {p6,p22};
c48 = newc; Line(c48) = {p22,p11};
c49 = newc; Line(c49) = {p11,p21};
c53 = newc; Line(c53) = {p15,p12};
c54 = newc; Line(c54) = {p12,p22};
c58 = newc; Line(c58) = {p11,p8};
c59 = newc; Line(c59) = {p8,p20};
c62 = newc; Line(c62) = {p8,p18};
c63 = newc; Line(c63) = {p18,p16};
c69 = newc; Line(c69) = {p12,p18};
c85 = newc; Line(c85) = {p30,p41};
c86 = newc; Line(c86) = {p41,p50};
c87 = newc; Line(c87) = {p50,p49};
c88 = newc; Line(c88) = {p49,p32};
c89 = newc; Line(c89) = {p32,p30};
c90 = newc; Line(c90) = {p30,p46};
c91 = newc; Line(c91) = {p46,p45};
c92 = newc; Line(c92) = {p45,p41};
c95 = newc; Line(c95) = {p32,p29};
c96 = newc; Line(c96) = {p29,p38};
c97 = newc; Line(c97) = {p38,p44};
c98 = newc; Line(c98) = {p44,p46};
c100 = newc; Line(c100) = {p3,p38};
c102 = newc; Line(c102) = {p29,p47};
c103 = newc; Line(c103) = {p47,p9};
c106 = newc; Line(c106) = {p17,p43};
c107 = newc; Line(c107) = {p43,p44};
c115 = newc; Line(c115) = {p49,p40};
c116 = newc; Line(c116) = {p40,p36};
c117 = newc; Line(c117) = {p36,p47};
c121 = newc; Line(c121) = {p13,p39};
c122 = newc; Line(c122) = {p39,p48};
c123 = newc; Line(c123) = {p48,p35};
c124 = newc; Line(c124) = {p35,p42};
c125 = newc; Line(c125) = {p42,p43};
c129 = newc; Line(c129) = {p36,p39};
c133 = newc; Line(c133) = {p48,p40};
c136 = newc; Line(c136) = {p50,p35};
c140 = newc; Line(c140) = {p45,p42};
c151 = newc; Line(c151) = {p52,p72};
c152 = newc; Line(c152) = {p72,p74};
c153 = newc; Line(c153) = {p74,p66};
c154 = newc; Line(c154) = {p66,p62};
c155 = newc; Line(c155) = {p62,p73};
c156 = newc; Line(c156) = {p73,p52};
c157 = newc; Line(c157) = {p52,p26};
c159 = newc; Line(c159) = {p2,p59};
c160 = newc; Line(c160) = {p59,p72};
c163 = newc; Line(c163) = {p73,p51};
c164 = newc; Line(c164) = {p51,p25};
c167 = newc; Line(c167) = {p53,p55};
c168 = newc; Line(c168) = {p55,p61};
c169 = newc; Line(c169) = {p61,p69};
c170 = newc; Line(c170) = {p69,p62};
c172 = newc; Line(c172) = {p66,p53};
c173 = newc; Line(c173) = {p53,p54};
c174 = newc; Line(c174) = {p54,p65};
c175 = newc; Line(c175) = {p65,p60};
c176 = newc; Line(c176) = {p60,p55};
c180 = newc; Line(c180) = {p74,p54};
c185 = newc; Line(c185) = {p59,p65};
c188 = newc; Line(c188) = {p60,p68};
c189 = newc; Line(c189) = {p68,p70};
c190 = newc; Line(c190) = {p70,p61};
c192 = newc; Line(c192) = {p56,p51};
c196 = newc; Line(c196) = {p69,p57};
c197 = newc; Line(c197) = {p57,p56};
c198 = newc; Line(c198) = {p56,p64};
c199 = newc; Line(c199) = {p64,p4};
c204 = newc; Line(c204) = {p57,p70};
c206 = newc; Line(c206) = {p68,p64};
c223 = newc; Line(c223) = {p76,p14};
c225 = newc; Line(c225) = {p16,p87};
c226 = newc; Line(c226) = {p87,p76};
c227 = newc; Line(c227) = {p76,p97};
c228 = newc; Line(c228) = {p97,p98};
c229 = newc; Line(c229) = {p98,p90};
c230 = newc; Line(c230) = {p90,p89};
c231 = newc; Line(c231) = {p89,p15};
c235 = newc; Line(c235) = {p87,p84};
c236 = newc; Line(c236) = {p84,p100};
c237 = newc; Line(c237) = {p100,p75};
c238 = newc; Line(c238) = {p75,p97};
c240 = newc; Line(c240) = {p77,p96};
c241 = newc; Line(c241) = {p96,p86};
c242 = newc; Line(c242) = {p86,p78};
c243 = newc; Line(c243) = {p78,p77};
c244 = newc; Line(c244) = {p77,p83};
c245 = newc; Line(c245) = {p83,p93};
c246 = newc; Line(c246) = {p93,p89};
c248 = newc; Line(c248) = {p90,p96};
c251 = newc; Line(c251) = {p78,p95};
c252 = newc; Line(c252) = {p95,p83};
c255 = newc; Line(c255) = {p86,p99};
c256 = newc; Line(c256) = {p99,p102};
c257 = newc; Line(c257) = {p102,p101};
c258 = newc; Line(c258) = {p101,p91};
c259 = newc; Line(c259) = {p91,p95};
c262 = newc; Line(c262) = {p12,p82};
c263 = newc; Line(c263) = {p82,p81};
c264 = newc; Line(c264) = {p81,p88};
c265 = newc; Line(c265) = {p88,p18};
c272 = newc; Line(c272) = {p88,p84};
c278 = newc; Line(c278) = {p93,p82};
c281 = newc; Line(c281) = {p81,p91};
c283 = newc; Line(c283) = {p101,p100};
c296 = newc; Line(c296) = {p98,p99};
c299 = newc; Line(c299) = {p75,p102};
c307 = newc; Line(c307) = {p65,p48};
c309 = newc; Line(c309) = {p35,p105};
c310 = newc; Line(c310) = {p105,p60};
c313 = newc; Line(c313) = {p59,p111};
c314 = newc; Line(c314) = {p111,p39};
c324 = newc; Line(c324) = {p105,p98};
c326 = newc; Line(c326) = {p90,p68};
c331 = newc; Line(c331) = {p42,p97};
c341 = newc; Line(c341) = {p107,p89};
c344 = newc; Line(c344) = {p1,p107};
c345 = newc; Line(c345) = {p107,p64};
c355 = newc; Line(c355) = {p43,p76};
c373 = newc; Line(c373) = {p111,p10};
// END  Edges


 // BEGIN  CurveLoops
cl1 = newcl; Line Loop(cl1) = {c1,c2,c3,c4,c5};
cl2 = newcl; Line Loop(cl2) = {c6,c7,c8,-c1};
cl3 = newcl; Line Loop(cl3) = {-c5,c11,c12,c13,c14,c15,c16,-c6};
cl4 = newcl; Line Loop(cl4) = {c18,c19,c20,c21,c22};
cl5 = newcl; Line Loop(cl5) = {c23,-c12,c25,-c18};
cl6 = newcl; Line Loop(cl6) = {-c22,c28,c29,c30,-c13,-c23};
cl7 = newcl; Line Loop(cl7) = {-c16,c34,c35,c36,c37,-c7};
cl8 = newcl; Line Loop(cl8) = {c39,c40,-c20,c42,-c3,c44,-c36};
cl9 = newcl; Line Loop(cl9) = {-c35,c47,c48,c49,-c39};
cl10 = newcl; Line Loop(cl10) = {-c34,-c15,c53,c54,-c47};
cl11 = newcl; Line Loop(cl11) = {-c40,-c49,c58,c59,-c28,-c21};
cl12 = newcl; Line Loop(cl12) = {c62,c63,-c29,-c59};
cl13 = newcl; Line Loop(cl13) = {-c58,-c48,-c54,c69,-c62};
cl14 = newcl; Line Loop(cl14) = {-c25,-c11,-c4,-c42,-c19};
cl15 = newcl; Line Loop(cl15) = {-c53,-c14,-c30,-c63,-c69};
cl16 = newcl; Line Loop(cl16) = {-c44,-c2,-c8,-c37};
cl17 = newcl; Line Loop(cl17) = {c85,c86,c87,c88,c89};
cl18 = newcl; Line Loop(cl18) = {c90,c91,c92,-c85};
cl19 = newcl; Line Loop(cl19) = {-c89,c95,c96,c97,c98,-c90};
cl20 = newcl; Line Loop(cl20) = {c100,-c96,c102,c103,-c18};
cl21 = newcl; Line Loop(cl21) = {c23,c106,c107,-c97,-c100};
cl23 = newcl; Line Loop(cl23) = {-c88,c115,c116,c117,-c102,-c95};
cl24 = newcl; Line Loop(cl24) = {-c12,c121,c122,c123,c124,c125,-c106};
cl25 = newcl; Line Loop(cl25) = {-c103,-c117,c129,-c121,c25};
cl26 = newcl; Line Loop(cl26) = {-c123,c133,-c115,-c87,c136};
cl27 = newcl; Line Loop(cl27) = {-c136,-c86,-c92,c140,-c124};
cl28 = newcl; Line Loop(cl28) = {-c116,-c133,-c122,-c129};
cl29 = newcl; Line Loop(cl29) = {-c140,-c91,-c98,-c107,-c125};
cl30 = newcl; Line Loop(cl30) = {c151,c152,c153,c154,c155,c156};
cl31 = newcl; Line Loop(cl31) = {c157,-c1,c159,c160,-c151};
cl32 = newcl; Line Loop(cl32) = {-c156,c163,c164,c8,-c157};
cl33 = newcl; Line Loop(cl33) = {c167,c168,c169,c170,-c154,c172};
cl34 = newcl; Line Loop(cl34) = {c173,c174,c175,c176,-c167};
cl35 = newcl; Line Loop(cl35) = {-c172,-c153,c180,-c173};
cl36 = newcl; Line Loop(cl36) = {-c180,-c152,-c160,c185,-c174};
cl37 = newcl; Line Loop(cl37) = {-c176,c188,c189,c190,-c168};
cl38 = newcl; Line Loop(cl38) = {c192,-c163,-c155,-c170,c196,c197};
cl39 = newcl; Line Loop(cl39) = {c198,c199,c7,-c164,-c192};
cl40 = newcl; Line Loop(cl40) = {-c197,c204,-c189,c206,-c198};
cl41 = newcl; Line Loop(cl41) = {-c196,-c169,-c190,-c204};
cl43 = newcl; Line Loop(cl43) = {-c159,c6,-c199,-c206,-c188,-c175,-c185};
cl44 = newcl; Line Loop(cl44) = {c223,-c30,c225,c226};
cl45 = newcl; Line Loop(cl45) = {c227,c228,c229,c230,c231,-c14,-c223};
cl46 = newcl; Line Loop(cl46) = {-c226,c235,c236,c237,c238,-c227};
cl47 = newcl; Line Loop(cl47) = {c240,c241,c242,c243};
cl48 = newcl; Line Loop(cl48) = {c244,c245,c246,-c230,c248,-c240};
cl49 = newcl; Line Loop(cl49) = {-c243,c251,c252,-c244};
cl50 = newcl; Line Loop(cl50) = {-c242,c255,c256,c257,c258,c259,-c251};
cl51 = newcl; Line Loop(cl51) = {-c69,c262,c263,c264,c265};
cl53 = newcl; Line Loop(cl53) = {-c265,c272,-c235,-c225,-c63};
cl54 = newcl; Line Loop(cl54) = {-c231,-c246,c278,-c262,-c53};
cl55 = newcl; Line Loop(cl55) = {c281,-c258,c283,-c236,-c272,-c264};
cl56 = newcl; Line Loop(cl56) = {-c263,-c278,-c245,-c252,-c259,-c281};
cl57 = newcl; Line Loop(cl57) = {-c241,-c248,-c229,c296,-c255};
cl58 = newcl; Line Loop(cl58) = {-c238,c299,-c256,-c296,-c228};
cl59 = newcl; Line Loop(cl59) = {-c283,-c257,-c299,-c237};
cl60 = newcl; Line Loop(cl60) = {c307,c123,c309,c310,-c175};
cl61 = newcl; Line Loop(cl61) = {-c185,c313,c314,c122,-c307};
cl63 = newcl; Line Loop(cl63) = {c324,c229,c326,-c188,-c310};
cl64 = newcl; Line Loop(cl64) = {-c309,c124,c331,c228,-c324};
cl66 = newcl; Line Loop(cl66) = {c341,c231,c15,c344};
cl67 = newcl; Line Loop(cl67) = {c345,-c206,-c326,c230,-c341};
cl68 = newcl; Line Loop(cl68) = {-c344,c16,-c199,-c345};
cl69 = newcl; Line Loop(cl69) = {c125,c355,c227,-c331};
cl72 = newcl; Line Loop(cl72) = {c373,c11,c121,-c314};
cl73 = newcl; Line Loop(cl73) = {-c313,-c159,-c5,-c373};
cl74 = newcl; Line Loop(cl74) = {-c223,-c355,-c106,c13};
// END  CurveLoops


 // BEGIN  Surfaces
s59 = news; Plane Surface(s59) = {cl59};
s68 = news; Plane Surface(s68) = {cl68};
s51 = news; Plane Surface(s51) = {cl51};
s60 = news; Plane Surface(s60) = {cl60};
s47 = news; Plane Surface(s47) = {cl47};
s74 = news; Plane Surface(s74) = {cl74};
s44 = news; Plane Surface(s44) = {cl44};
s49 = news; Plane Surface(s49) = {cl49};
s41 = news; Plane Surface(s41) = {cl41};
s72 = news; Plane Surface(s72) = {cl72};
s39 = news; Plane Surface(s39) = {cl39};
s58 = news; Plane Surface(s58) = {cl58};
s35 = news; Plane Surface(s35) = {cl35};
s66 = news; Plane Surface(s66) = {cl66};
s34 = news; Plane Surface(s34) = {cl34};
s54 = news; Plane Surface(s54) = {cl54};
s32 = news; Plane Surface(s32) = {cl32};
s64 = news; Plane Surface(s64) = {cl64};
s30 = news; Plane Surface(s30) = {cl30};
s55 = news; Plane Surface(s55) = {cl55};
s27 = news; Plane Surface(s27) = {cl27};
s31 = news; Plane Surface(s31) = {cl31};
s26 = news; Plane Surface(s26) = {cl26};
s53 = news; Plane Surface(s53) = {cl53};
s25 = news; Plane Surface(s25) = {cl25};
s37 = news; Plane Surface(s37) = {cl37};
s23 = news; Plane Surface(s23) = {cl23};
s56 = news; Plane Surface(s56) = {cl56};
s21 = news; Plane Surface(s21) = {cl21};
s57 = news; Plane Surface(s57) = {cl57};
s20 = news; Plane Surface(s20) = {cl20};
s63 = news; Plane Surface(s63) = {cl63};
s19 = news; Plane Surface(s19) = {cl19};
s38 = news; Plane Surface(s38) = {cl38};
s18 = news; Plane Surface(s18) = {cl18};
s73 = news; Plane Surface(s73) = {cl73};
s16 = news; Plane Surface(s16) = {cl16};
s69 = news; Plane Surface(s69) = {cl69};
s14 = news; Plane Surface(s14) = {cl14};
s40 = news; Plane Surface(s40) = {cl40};
s13 = news; Plane Surface(s13) = {cl13};
s61 = news; Plane Surface(s61) = {cl61};
s12 = news; Plane Surface(s12) = {cl12};
s28 = news; Plane Surface(s28) = {cl28};
s11 = news; Plane Surface(s11) = {cl11};
s33 = news; Plane Surface(s33) = {cl33};
s10 = news; Plane Surface(s10) = {cl10};
s36 = news; Plane Surface(s36) = {cl36};
s9 = news; Plane Surface(s9) = {cl9};
s17 = news; Plane Surface(s17) = {cl17};
s8 = news; Plane Surface(s8) = {cl8};
s50 = news; Plane Surface(s50) = {cl50};
s7 = news; Plane Surface(s7) = {cl7};
s46 = news; Plane Surface(s46) = {cl46};
s6 = news; Plane Surface(s6) = {cl6};
s48 = news; Plane Surface(s48) = {cl48};
s4 = news; Plane Surface(s4) = {cl4};
s67 = news; Plane Surface(s67) = {cl67};
s1 = news; Plane Surface(s1) = {cl1};
s29 = news; Plane Surface(s29) = {cl29};
s2 = news; Plane Surface(s2) = {cl2};
s3 = news; Plane Surface(s3) = {cl3};
s5 = news; Plane Surface(s5) = {cl5};
s15 = news; Plane Surface(s15) = {cl15};
s24 = news; Plane Surface(s24) = {cl24};
s43 = news; Plane Surface(s43) = {cl43};
s45 = news; Plane Surface(s45) = {cl45};
// END  Surfaces


 // BEGIN  SurfaceLoop
sl1 = newsl; Surface Loop(sl1) = {s1,s2,s3,s4,s5,s6,s7,s8,s9,s10,s11,s12,s13,s14,s15,s16};
sl2 = newsl; Surface Loop(sl2) = {s17,s18,s19,s20,s21,s5,s23,s24,s25,s26,s27,s28,s29};
sl3 = newsl; Surface Loop(sl3) = {s30,s31,s32,s33,s34,s35,s36,s37,s38,s39,s40,s41,s2,s43};
sl4 = newsl; Surface Loop(sl4) = {s44,s45,s46,s47,s48,s49,s50,s51,s15,s53,s54,s55,s56,s57,s58,s59};
sl5 = newsl; Surface Loop(sl5) = {s60,s61,s43,s63,s64,s24,s66,s67,s68,s69,s3,s45,s72,s73,s74};
// END  SurfaceLoop


 // BEGIN  Matrix volume
v385 = newv; Volume(v385) = {sl1};
v387 = newv; Volume(v387) = {sl2};
v389 = newv; Volume(v389) = {sl3};
v391 = newv; Volume(v391) = {sl4};
v393 = newv; Volume(v393) = {sl5};
// END  Matrix volume


 // BEGIN  Periodic surfaces of the enveloppe
Periodic Surface { s1 }={ s29 } Translate {0,-1,0};
Periodic Surface { s67 }={ s4 } Translate {-1,-0,-0};
Periodic Surface { s48 }={ s6 } Translate {-1,-0,-0};
Periodic Surface { s7 }={ s46 } Translate {0,-1,0};
Periodic Surface { s50 }={ s8 } Translate {-1,1,-0};
Periodic Surface { s9 }={ s17 } Translate {0,-1,1};
Periodic Surface { s36 }={ s10 } Translate {-0,-0,-1};
Periodic Surface { s33 }={ s11 } Translate {-1,-0,-1};
Periodic Surface { s28 }={ s12 } Translate {-0,-0,-1};
Periodic Surface { s61 }={ s13 } Translate {-0,-0,-1};
Periodic Surface { s40 }={ s14 } Translate {-1,-0,-0};
Periodic Surface { s16 }={ s69 } Translate {0,-1,0};
Periodic Surface { s73 }={ s18 } Translate {0,-1,0};
Periodic Surface { s38 }={ s19 } Translate {-1,-1,-0};
Periodic Surface { s63 }={ s20 } Translate {-1,-0,-0};
Periodic Surface { s57 }={ s21 } Translate {-1,-0,-0};
Periodic Surface { s56 }={ s23 } Translate {-1,-0,1};
Periodic Surface { s37 }={ s25 } Translate {-1,-0,-0};
Periodic Surface { s26 }={ s53 } Translate {0,0,-1};
Periodic Surface { s31 }={ s27 } Translate {0,-1,0};
Periodic Surface { s30 }={ s55 } Translate {0,-1,-1};
Periodic Surface { s32 }={ s64 } Translate {0,-1,0};
Periodic Surface { s34 }={ s54 } Translate {-0,-0,-1};
Periodic Surface { s35 }={ s66 } Translate {-0,-0,-1};
Periodic Surface { s39 }={ s58 } Translate {0,-1,0};
Periodic Surface { s41 }={ s72 } Translate {-1,-0,-0};
Periodic Surface { s49 }={ s44 } Translate {-1,-0,-0};
Periodic Surface { s47 }={ s74 } Translate {-1,-0,-0};
Periodic Surface { s60 }={ s51 } Translate {-0,-0,-1};
Periodic Surface { s68 }={ s59 } Translate {0,-1,0};
// END  Periodic surfaces of the enveloppe


 // BEGIN  Physical volumes
Physical Volume(1) = {v385};
Physical Volume(2) = {v387};
Physical Volume(3) = {v389};
Physical Volume(4) = {v391};
Physical Volume(5) = {v393};
// END  Physical volumes


 // BEGIN  Physical surfaces
Physical Surface(1) = {s1,s2,s3,s4,s5,s6,s7,s8,s9,s10,s11,s12,s13,s14,s15,s16};
Physical Surface(2) = {s17,s18,s19,s20,s21,s5,s23,s24,s25,s26,s27,s28,s29};
Physical Surface(3) = {s30,s31,s32,s33,s34,s35,s36,s37,s38,s39,s40,s41,s2,s43};
Physical Surface(4) = {s44,s45,s46,s47,s48,s49,s50,s51,s15,s53,s54,s55,s56,s57,s58,s59};
Physical Surface(5) = {s60,s61,s43,s63,s64,s24,s66,s67,s68,s69,s3,s45,s72,s73,s74};
Physical Surface(6) = {s1,s4,s6,s7,s8,s9,s10,s11,s12,s13,s14,s16,s17,s18,s19,s20,s21,s23,s25,s26,s27,s28,s29,s30,s31,s32,s33,s34,s35,s36,s37,s38,s39,s40,s41,s44,s46,s47,s48,s49,s50,s51,s53,s54,s55,s56,s57,s58,s59,s60,s61,s63,s64,s66,s67,s68,s69,s72,s73,s74};
// END  Physical surfaces


MeshSize {:} =0.050000000000000003;

Mesh.ElementOrder =1;
Mesh 2;
Mesh 3;
Mesh.MshFileVersion = 2.2;
Save "5crystals.med";
